<?xml version="1.0" standalone="yes"?>
<svg xmlns="http://www.w3.org/2000/svg" width="435" height="373">
<path style="fill:none; stroke:none;" d="M0 0L0 373L435 373L435 344L434 344C428.209 382.634 371.212 372 344 372L112 372L52 372C40.8821 372 28.9334 373.361 19 367.37C-2.17056 354.599 1 332.307 1 311L1 171L1 79C1 63.6501 -0.664124 47.235 1.18441 32C3.0034 17.0086 16.0576 3.02362 31 1L0 0z"/>
<path style="fill:#2e8ac3; stroke:none;" d="M1 100L2 100C5.5234 59.8972 64.9885 70 92 70L353 70C379.468 70 428.451 61.9818 434 99C436.085 94.0309 435 87.3503 435 82C435 61.5955 430.038 41.7031 407 36.5139C386.863 31.9781 363.56 35 343 35C292.238 35 239.57 39.1009 189 34.9421C183.215 34.4664 178.524 29.8426 174 26.5756C163.195 18.7731 149.834 4.30347 137 0.513123C127.659 -2.24545 114.72 0 105 0L50 0C33.2794 0 17.1885 0.303894 6.96605 16C0.265827 26.2878 1 37.2855 1 49L1 100z"/>
<path style="fill:none; stroke:none;" d="M138 0L138 1C148.726 8.6824 159.275 16.6093 170 24.2901C174.599 27.5838 179.564 32.6786 185 34.436C199.52 39.1303 221.718 35 237 35L354 35C381.742 35 425.466 28.0691 434 64L435 64L435 0L138 0z"/>
<path style="fill:#45b5ee; stroke:none;" d="M151 10L152 11L151 10M173 26L174 27L173 26M434 64L435 65L434 64M34 70L34 71L403 71L370 70L295 70L34 70M28 71L29 72L28 71z"/>
<path style="fill:#60c9fb; stroke:none;" d="M2 260L3 260L3 256L4 256L4 262L5 262L5 258L6 258L6 260L7 260L7 256L8 256L8 262L9 262L9 258L10 258L10 260L11 260L11 256L12 256L12 262L13 262L13 258L14 258L14 260L15 260L15 256L16 256L16 262L17 262L17 258L18 258L18 260L19 260L19 256L20 256L20 262L21 262L21 258L22 258L22 260L23 260L23 256L24 256L24 262L25 262L25 258L26 258L26 260L27 260L27 256L28 256L28 262L29 262L29 258L30 258L30 260L31 260L31 256L32 256L32 262L33 262L33 258L34 258L34 260L35 260L35 256L36 256L36 262L37 262L37 258L38 258L38 260L39 260L39 256L40 256L40 262L41 262L41 258L42 258L42 260L43 260L43 256L44 256L44 262L45 262L45 258L46 258L46 260L47 260L47 256L48 256L48 262L49 262L49 258L50 258L50 260L51 260L51 256L52 256L52 262L53 262L53 258L54 258L54 260L55 260L55 256L56 256L56 262L57 262L57 258L58 258L58 260L59 260L59 256L60 256L60 262L61 262L61 258L62 258L62 260L63 260L63 256L64 256L64 262L65 262L65 258L66 258L66 260L67 260L67 256L68 256L68 262L69 262L69 258L70 258L70 260L71 260L71 256L72 256L72 262L73 262L73 258L74 258L74 260L75 260L75 256L76 256L76 262L77 262L77 258L78 258L78 260L79 260L79 256L80 256L80 262L81 262L81 258L82 258L82 260L83 260L83 256L84 256L84 262L85 262L85 258L86 258L86 260L87 260L87 256L88 256L88 262L89 262L89 258L90 258L90 260L91 260L91 256L92 256L92 262L93 262L93 258L94 258L94 260L95 260L95 256L96 256L96 262L97 262L97 258L98 258L98 260L99 260L99 256L100 256L100 262L101 262L101 258L102 258L102 260L103 260L103 256L104 256L104 262L105 262L105 258L106 258L106 260L107 260L107 256L108 256L108 262L109 262L109 258L110 258L110 260L111 260L111 256L112 256L112 262L113 262L113 258L114 258L114 260L115 260L115 256L116 256L116 262L117 262L117 258L118 258L118 260L119 260L119 256L120 256L120 262L121 262L121 258L122 258L122 260L123 260L123 256L124 256L124 262L125 262L125 258L126 258L126 260L127 260L127 256L128 256L128 262L129 262L129 258L130 258L130 260L131 260L131 256L132 256L132 262L133 262L133 258L134 258L134 260L135 260L135 256L136 256L136 262L137 262L137 258L138 258L138 260L139 260L139 256L140 256L140 262L141 262L141 258L142 258L142 260L143 260L143 256L144 256L144 262L145 262L145 258L146 258L146 260L147 260L147 256L148 256L148 262L149 262L149 258L150 258L150 260L151 260L151 256L152 256L152 262L153 262L153 258L154 258L154 260L155 260L155 256L156 256L156 262L157 262L157 258L158 258L158 260L159 260L159 256L160 256L160 262L161 262L161 258L162 258L162 260L163 260L163 256L164 256L164 262L165 262L165 258L166 258L166 260L167 260L167 256L168 256L168 262L169 262L169 258L170 258L170 260L171 260L171 256L172 256L172 262L173 262L173 258L174 258L174 260L175 260L175 256L176 256L176 262L177 262L177 258L178 258L178 260L179 260L179 256L180 256L180 262L181 262L181 258L182 258L182 260L183 260L183 256L184 256L184 262L185 262L185 258L186 258L186 260L187 260L187 256L188 256L188 262L189 262L189 258L190 258L190 260L191 260L191 256L192 256L192 262L193 262L193 258L194 258L194 260L195 260L195 256L196 256L196 262L197 262L197 258L198 258L198 260L199 260L199 256L200 256L200 262L201 262L201 258L202 258L202 260L203 260L203 256L204 256L204 262L205 262L205 258L206 258L206 260L207 260L207 256L208 256L208 262L209 262L209 258L210 258L210 260L211 260L211 256L212 256L212 262L213 262L213 258L214 258L214 260L215 260L215 256L216 256L216 262L217 262L217 258L218 258L218 260L219 260L219 256L220 256L220 262L221 262L221 258L222 258L222 260L223 260L223 256L224 256L224 262L225 262L225 258L226 258L226 260L227 260L227 256L228 256L228 262L229 262L229 258L230 258L230 260L231 260L231 256L232 256L232 262L233 262L233 258L234 258L234 260L235 260L235 256L236 256L236 262L237 262L237 258L238 258L238 260L239 260L239 256L240 256L240 262L241 262L241 258L242 258L242 260L243 260L243 256L244 256L244 262L245 262L245 258L246 258L246 260L247 260L247 256L248 256L248 262L249 262L249 258L250 258L250 260L251 260L251 256L252 256L252 262L253 262L253 258L254 258L254 260L255 260L255 256L256 256L256 262L257 262L257 258L258 258L258 260L259 260L259 256L260 256L260 262L261 262L261 258L262 258L262 260L263 260L263 256L264 256L264 262L265 262L265 258L266 258L266 260L267 260L267 256L268 256L268 262L269 262L269 258L270 258L270 260L271 260L271 256L272 256L272 262L273 262L273 258L274 258L274 260L275 260L275 256L276 256L276 262L277 262L277 258L278 258L278 260L279 260L279 256L280 256L280 262L281 262L281 258L282 258L282 260L283 260L283 256L284 256L284 262L285 262L285 258L286 258L286 260L287 260L287 256L288 256L288 262L289 262L289 258L290 258L290 260L291 260L291 256L292 256L292 262L293 262L293 258L294 258L294 260L295 260L295 256L296 256L296 262L297 262L297 258L298 258L298 260L299 260L299 256L300 256L300 262L301 262L301 258L302 258L302 260L303 260L303 256L304 256L304 262L305 262L305 258L306 258L306 260L307 260L307 256L308 256L308 262L309 262L309 258L310 258L310 260L311 260L311 256L312 256L312 262L313 262L313 258L314 258L314 260L315 260L315 256L316 256L316 262L317 262L317 258L318 258L318 260L319 260L319 256L320 256L320 262L321 262L321 258L322 258L322 260L323 260L323 256L324 256L324 262L325 262L325 258L326 258L326 260L327 260L327 256L328 256L328 262L329 262L329 258L330 258L330 260L331 260L331 256L332 256L332 262L333 262L333 258L334 258L334 260L335 260L335 256L336 256L336 262L337 262L337 258L338 258L338 260L339 260L339 256L340 256L340 262L341 262L341 258L342 258L342 260L343 260L343 256L344 256L344 262L345 262L345 258L346 258L346 260L347 260L347 256L348 256L348 262L349 262L349 258L350 258L350 260L351 260L351 256L352 256L352 262L353 262L353 258L354 258L354 260L355 260L355 256L356 256L356 262L357 262L357 258L358 258L358 260L359 260L359 256L360 256L360 262L361 262L361 258L362 258L362 260L363 260L363 256L364 256L364 262L365 262L365 258L366 258L366 260L367 260L367 256L368 256L368 262L369 262L369 258L370 258L370 260L371 260L371 256L372 256L372 262L373 262L373 258L374 258L374 260L375 260L375 256L376 256L376 262L377 262L377 258L378 258L378 260L379 260L379 256L380 256L380 262L381 262L381 258L382 258L382 260L383 260L383 256L384 256L384 262L385 262L385 258L386 258L386 260L387 260L387 256L388 256L388 262L389 262L389 258L390 258L390 260L391 260L391 256L392 256L392 262L393 262L393 258L394 258L394 260L395 260L395 256L396 256L396 262L397 262L397 258L398 258L398 260L399 260L399 256L400 256L400 262L401 262L401 258L402 258L402 260L403 260L403 256L404 256L404 262L405 262L405 258L406 258L406 260L407 260L407 256L408 256L408 262L409 262L409 258L410 258L410 260L411 260L411 256L412 256L412 262L413 262L413 258L414 258L414 260L415 260L415 256L416 256L416 262L417 262L417 258L418 258L418 260L419 260L419 256L420 256L420 262L421 262L421 258L422 258L422 260L423 260L423 256L424 256L424 262L425 262L425 258L426 258L426 260L427 260L427 256L428 256L428 262L429 262L429 258L430 258L430 260L431 260L431 256L432 256L432 262L433 262L433 258L434 258L434 260C438.607 249.02 435 229.944 435 218L435 123C435 107.069 436.166 90.793 422.985 79.2099C413.032 70.4627 401.396 71 389 71L336 71L104 71L48 71C34.1379 71 21.6212 70.4666 11.0934 81.0903C-1.60763 93.9069 1 112.538 1 129L1 215C1 229.481 -1.09527 245.814 2 260z"/>
<path style="fill:#45b5ee; stroke:none;" d="M407 71L408 72L407 71M24 72L25 73L24 72M411 72L412 73L411 72M21 73L22 74L21 73M414 73L415 74L414 73M417 75L418 76L417 75M16 76L17 77L16 76M419 76L420 77L419 76M15 77L16 78L15 77M12 79L13 80L12 79M423 79L424 80L423 79M11 80L12 81L11 80M424 80L425 81L424 80M10 81L11 82L10 81M425 81L426 82L425 81M9 82L10 83L9 82M426 82L427 83L426 82M7 85L8 86L7 85M428 85L429 86L428 85M5 88L6 89L5 88M430 88L431 89L430 88M4 90L5 91L4 90M431 90L432 91L431 90M3 92L4 93L3 92M432 92L433 93L432 92M2 95L3 96L2 95M433 95L434 96L433 95M434.333 99.6667L434.667 100.333L434.333 99.6667M1 100L2 101L1 100M3 254L4 255L3 254M7 254L8 255L7 254M11 254L12 255L11 254M15 254L16 255L15 254M19 254L20 255L19 254M23 254L24 255L23 254M27 254L28 255L27 254M31 254L32 255L31 254M35 254L36 255L35 254M39 254L40 255L39 254M43 254L44 255L43 254M47 254L48 255L47 254M51 254L52 255L51 254M55 254L56 255L55 254M59 254L60 255L59 254M63 254L64 255L63 254M67 254L68 255L67 254M71 254L72 255L71 254M75 254L76 255L75 254M79 254L80 255L79 254M83 254L84 255L83 254M87 254L88 255L87 254M91 254L92 255L91 254M95 254L96 255L95 254M99 254L100 255L99 254M103 254L104 255L103 254M107 254L108 255L107 254M111 254L112 255L111 254M115 254L116 255L115 254M119 254L120 255L119 254M123 254L124 255L123 254M127 254L128 255L127 254M131 254L132 255L131 254M135 254L136 255L135 254M139 254L140 255L139 254M143 254L144 255L143 254M147 254L148 255L147 254M151 254L152 255L151 254M155 254L156 255L155 254M159 254L160 255L159 254M163 254L164 255L163 254M167 254L168 255L167 254M171 254L172 255L171 254M175 254L176 255L175 254M179 254L180 255L179 254M183 254L184 255L183 254M187 254L188 255L187 254M191 254L192 255L191 254M195 254L196 255L195 254M199 254L200 255L199 254M203 254L204 255L203 254M207 254L208 255L207 254M211 254L212 255L211 254M215 254L216 255L215 254M219 254L220 255L219 254M223 254L224 255L223 254M227 254L228 255L227 254M231 254L232 255L231 254M235 254L236 255L235 254M239 254L240 255L239 254M243 254L244 255L243 254M247 254L248 255L247 254M251 254L252 255L251 254M255 254L256 255L255 254M259 254L260 255L259 254M263 254L264 255L263 254M267 254L268 255L267 254M271 254L272 255L271 254M275 254L276 255L275 254M279 254L280 255L279 254M283 254L284 255L283 254M287 254L288 255L287 254M291 254L292 255L291 254M295 254L296 255L295 254M299 254L300 255L299 254M303 254L304 255L303 254M307 254L308 255L307 254M311 254L312 255L311 254M315 254L316 255L315 254M319 254L320 255L319 254M323 254L324 255L323 254M327 254L328 255L327 254M331 254L332 255L331 254M335 254L336 255L335 254M339 254L340 255L339 254M343 254L344 255L343 254M347 254L348 255L347 254M351 254L352 255L351 254M355 254L356 255L355 254M359 254L360 255L359 254M363 254L364 255L363 254M367 254L368 255L367 254M371 254L372 255L371 254M375 254L376 255L375 254M379 254L380 255L379 254M383 254L384 255L383 254M387 254L388 255L387 254M391 254L392 255L391 254M395 254L396 255L395 254M399 254L400 255L399 254M403 254L404 255L403 254M407 254L408 255L407 254M411 254L412 255L411 254M415 254L416 255L415 254M419 254L420 255L419 254M423 254L424 255L423 254M427 254L428 255L427 254M431 254L432 255L431 254M1 256L2 257L1 256M3 256L3 260L2 260L2 258L1 258L1 324C1 338.297 0.626716 352.151 12.0903 362.699C24.4101 374.035 41.5481 372 57 372L157 372L348 372C369.938 372 405.051 378.756 422.961 363.532C442.619 346.823 435 309.022 435 286C435 276.806 435.97 267.027 434 258L433 258L433 262L432 262L432 256L431 256L431 260L430 260L430 258L429 258L429 262L428 262L428 256L427 256L427 260L426 260L426 258L425 258L425 262L424 262L424 256L423 256L423 260L422 260L422 258L421 258L421 262L420 262L420 256L419 256L419 260L418 260L418 258L417 258L417 262L416 262L416 256L415 256L415 260L414 260L414 258L413 258L413 262L412 262L412 256L411 256L411 260L410 260L410 258L409 258L409 262L408 262L408 256L407 256L407 260L406 260L406 258L405 258L405 262L404 262L404 256L403 256L403 260L402 260L402 258L401 258L401 262L400 262L400 256L399 256L399 260L398 260L398 258L397 258L397 262L396 262L396 256L395 256L395 260L394 260L394 258L393 258L393 262L392 262L392 256L391 256L391 260L390 260L390 258L389 258L389 262L388 262L388 256L387 256L387 260L386 260L386 258L385 258L385 262L384 262L384 256L383 256L383 260L382 260L382 258L381 258L381 262L380 262L380 256L379 256L379 260L378 260L378 258L377 258L377 262L376 262L376 256L375 256L375 260L374 260L374 258L373 258L373 262L372 262L372 256L371 256L371 260L370 260L370 258L369 258L369 262L368 262L368 256L367 256L367 260L366 260L366 258L365 258L365 262L364 262L364 256L363 256L363 260L362 260L362 258L361 258L361 262L360 262L360 256L359 256L359 260L358 260L358 258L357 258L357 262L356 262L356 256L355 256L355 260L354 260L354 258L353 258L353 262L352 262L352 256L351 256L351 260L350 260L350 258L349 258L349 262L348 262L348 256L347 256L347 260L346 260L346 258L345 258L345 262L344 262L344 256L343 256L343 260L342 260L342 258L341 258L341 262L340 262L340 256L339 256L339 260L338 260L338 258L337 258L337 262L336 262L336 256L335 256L335 260L334 260L334 258L333 258L333 262L332 262L332 256L331 256L331 260L330 260L330 258L329 258L329 262L328 262L328 256L327 256L327 260L326 260L326 258L325 258L325 262L324 262L324 256L323 256L323 260L322 260L322 258L321 258L321 262L320 262L320 256L319 256L319 260L318 260L318 258L317 258L317 262L316 262L316 256L315 256L315 260L314 260L314 258L313 258L313 262L312 262L312 256L311 256L311 260L310 260L310 258L309 258L309 262L308 262L308 256L307 256L307 260L306 260L306 258L305 258L305 262L304 262L304 256L303 256L303 260L302 260L302 258L301 258L301 262L300 262L300 256L299 256L299 260L298 260L298 258L297 258L297 262L296 262L296 256L295 256L295 260L294 260L294 258L293 258L293 262L292 262L292 256L291 256L291 260L290 260L290 258L289 258L289 262L288 262L288 256L287 256L287 260L286 260L286 258L285 258L285 262L284 262L284 256L283 256L283 260L282 260L282 258L281 258L281 262L280 262L280 256L279 256L279 260L278 260L278 258L277 258L277 262L276 262L276 256L275 256L275 260L274 260L274 258L273 258L273 262L272 262L272 256L271 256L271 260L270 260L270 258L269 258L269 262L268 262L268 256L267 256L267 260L266 260L266 258L265 258L265 262L264 262L264 256L263 256L263 260L262 260L262 258L261 258L261 262L260 262L260 256L259 256L259 260L258 260L258 258L257 258L257 262L256 262L256 256L255 256L255 260L254 260L254 258L253 258L253 262L252 262L252 256L251 256L251 260L250 260L250 258L249 258L249 262L248 262L248 256L247 256L247 260L246 260L246 258L245 258L245 262L244 262L244 256L243 256L243 260L242 260L242 258L241 258L241 262L240 262L240 256L239 256L239 260L238 260L238 258L237 258L237 262L236 262L236 256L235 256L235 260L234 260L234 258L233 258L233 262L232 262L232 256L231 256L231 260L230 260L230 258L229 258L229 262L228 262L228 256L227 256L227 260L226 260L226 258L225 258L225 262L224 262L224 256L223 256L223 260L222 260L222 258L221 258L221 262L220 262L220 256L219 256L219 260L218 260L218 258L217 258L217 262L216 262L216 256L215 256L215 260L214 260L214 258L213 258L213 262L212 262L212 256L211 256L211 260L210 260L210 258L209 258L209 262L208 262L208 256L207 256L207 260L206 260L206 258L205 258L205 262L204 262L204 256L203 256L203 260L202 260L202 258L201 258L201 262L200 262L200 256L199 256L199 260L198 260L198 258L197 258L197 262L196 262L196 256L195 256L195 260L194 260L194 258L193 258L193 262L192 262L192 256L191 256L191 260L190 260L190 258L189 258L189 262L188 262L188 256L187 256L187 260L186 260L186 258L185 258L185 262L184 262L184 256L183 256L183 260L182 260L182 258L181 258L181 262L180 262L180 256L179 256L179 260L178 260L178 258L177 258L177 262L176 262L176 256L175 256L175 260L174 260L174 258L173 258L173 262L172 262L172 256L171 256L171 260L170 260L170 258L169 258L169 262L168 262L168 256L167 256L167 260L166 260L166 258L165 258L165 262L164 262L164 256L163 256L163 260L162 260L162 258L161 258L161 262L160 262L160 256L159 256L159 260L158 260L158 258L157 258L157 262L156 262L156 256L155 256L155 260L154 260L154 258L153 258L153 262L152 262L152 256L151 256L151 260L150 260L150 258L149 258L149 262L148 262L148 256L147 256L147 260L146 260L146 258L145 258L145 262L144 262L144 256L143 256L143 260L142 260L142 258L141 258L141 262L140 262L140 256L139 256L139 260L138 260L138 258L137 258L137 262L136 262L136 256L135 256L135 260L134 260L134 258L133 258L133 262L132 262L132 256L131 256L131 260L130 260L130 258L129 258L129 262L128 262L128 256L127 256L127 260L126 260L126 258L125 258L125 262L124 262L124 256L123 256L123 260L122 260L122 258L121 258L121 262L120 262L120 256L119 256L119 260L118 260L118 258L117 258L117 262L116 262L116 256L115 256L115 260L114 260L114 258L113 258L113 262L112 262L112 256L111 256L111 260L110 260L110 258L109 258L109 262L108 262L108 256L107 256L107 260L106 260L106 258L105 258L105 262L104 262L104 256L103 256L103 260L102 260L102 258L101 258L101 262L100 262L100 256L99 256L99 260L98 260L98 258L97 258L97 262L96 262L96 256L95 256L95 260L94 260L94 258L93 258L93 262L92 262L92 256L91 256L91 260L90 260L90 258L89 258L89 262L88 262L88 256L87 256L87 260L86 260L86 258L85 258L85 262L84 262L84 256L83 256L83 260L82 260L82 258L81 258L81 262L80 262L80 256L79 256L79 260L78 260L78 258L77 258L77 262L76 262L76 256L75 256L75 260L74 260L74 258L73 258L73 262L72 262L72 256L71 256L71 260L70 260L70 258L69 258L69 262L68 262L68 256L67 256L67 260L66 260L66 258L65 258L65 262L64 262L64 256L63 256L63 260L62 260L62 258L61 258L61 262L60 262L60 256L59 256L59 260L58 260L58 258L57 258L57 262L56 262L56 256L55 256L55 260L54 260L54 258L53 258L53 262L52 262L52 256L51 256L51 260L50 260L50 258L49 258L49 262L48 262L48 256L47 256L47 260L46 260L46 258L45 258L45 262L44 262L44 256L43 256L43 260L42 260L42 258L41 258L41 262L40 262L40 256L39 256L39 260L38 260L38 258L37 258L37 262L36 262L36 256L35 256L35 260L34 260L34 258L33 258L33 262L32 262L32 256L31 256L31 260L30 260L30 258L29 258L29 262L28 262L28 256L27 256L27 260L26 260L26 258L25 258L25 262L24 262L24 256L23 256L23 260L22 260L22 258L21 258L21 262L20 262L20 256L19 256L19 260L18 260L18 258L17 258L17 262L16 262L16 256L15 256L15 260L14 260L14 258L13 258L13 262L12 262L12 256L11 256L11 260L10 260L10 258L9 258L9 262L8 262L8 256L7 256L7 260L6 260L6 258L5 258L5 262L4 262L3 256M5 256L6 257L5 256M9 256L10 257L9 256M13 256L14 257L13 256M17 256L18 257L17 256M21 256L22 257L21 256M25 256L26 257L25 256M29 256L30 257L29 256M33 256L34 257L33 256M37 256L38 257L37 256M41 256L42 257L41 256M45 256L46 257L45 256M49 256L50 257L49 256M53 256L54 257L53 256M57 256L58 257L57 256M61 256L62 257L61 256M65 256L66 257L65 256M69 256L70 257L69 256M73 256L74 257L73 256M77 256L78 257L77 256M81 256L82 257L81 256M85 256L86 257L85 256M89 256L90 257L89 256M93 256L94 257L93 256M97 256L98 257L97 256M101 256L102 257L101 256M105 256L106 257L105 256M109 256L110 257L109 256M113 256L114 257L113 256M117 256L118 257L117 256M121 256L122 257L121 256M125 256L126 257L125 256M129 256L130 257L129 256M133 256L134 257L133 256M137 256L138 257L137 256M141 256L142 257L141 256M145 256L146 257L145 256M149 256L150 257L149 256M153 256L154 257L153 256M157 256L158 257L157 256M161 256L162 257L161 256M165 256L166 257L165 256M169 256L170 257L169 256M173 256L174 257L173 256M177 256L178 257L177 256M181 256L182 257L181 256M185 256L186 257L185 256M189 256L190 257L189 256M193 256L194 257L193 256M197 256L198 257L197 256M201 256L202 257L201 256M205 256L206 257L205 256M209 256L210 257L209 256M213 256L214 257L213 256M217 256L218 257L217 256M221 256L222 257L221 256M225 256L226 257L225 256M229 256L230 257L229 256M233 256L234 257L233 256M237 256L238 257L237 256M241 256L242 257L241 256M245 256L246 257L245 256M249 256L250 257L249 256M253 256L254 257L253 256M257 256L258 257L257 256M261 256L262 257L261 256M265 256L266 257L265 256M269 256L270 257L269 256M273 256L274 257L273 256M277 256L278 257L277 256M281 256L282 257L281 256M285 256L286 257L285 256M289 256L290 257L289 256M293 256L294 257L293 256M297 256L298 257L297 256M301 256L302 257L301 256M305 256L306 257L305 256M309 256L310 257L309 256M313 256L314 257L313 256M317 256L318 257L317 256M321 256L322 257L321 256M325 256L326 257L325 256M329 256L330 257L329 256M333 256L334 257L333 256M337 256L338 257L337 256M341 256L342 257L341 256M345 256L346 257L345 256M349 256L350 257L349 256M353 256L354 257L353 256M357 256L358 257L357 256M361 256L362 257L361 256M365 256L366 257L365 256M369 256L370 257L369 256M373 256L374 257L373 256M377 256L378 257L377 256M381 256L382 257L381 256M385 256L386 257L385 256M389 256L390 257L389 256M393 256L394 257L393 256M397 256L398 257L397 256M401 256L402 257L401 256M405 256L406 257L405 256M409 256L410 257L409 256M413 256L414 257L413 256M417 256L418 257L417 256M421 256L422 257L421 256M425 256L426 257L425 256M429 256L430 257L429 256M433 256L434 257L433 256z"/>
<path style="fill:#60c9fb; stroke:none;" d="M2 261L3 262L2 261M6 261L7 262L6 261M10 261L11 262L10 261M14 261L15 262L14 261M18 261L19 262L18 261M22 261L23 262L22 261M26 261L27 262L26 261M30 261L31 262L30 261M34 261L35 262L34 261M38 261L39 262L38 261M42 261L43 262L42 261M46 261L47 262L46 261M50 261L51 262L50 261M54 261L55 262L54 261M58 261L59 262L58 261M62 261L63 262L62 261M66 261L67 262L66 261M70 261L71 262L70 261M74 261L75 262L74 261M78 261L79 262L78 261M82 261L83 262L82 261M86 261L87 262L86 261M90 261L91 262L90 261M94 261L95 262L94 261M98 261L99 262L98 261M102 261L103 262L102 261M106 261L107 262L106 261M110 261L111 262L110 261M114 261L115 262L114 261M118 261L119 262L118 261M122 261L123 262L122 261M126 261L127 262L126 261M130 261L131 262L130 261M134 261L135 262L134 261M138 261L139 262L138 261M142 261L143 262L142 261M146 261L147 262L146 261M150 261L151 262L150 261M154 261L155 262L154 261M158 261L159 262L158 261M162 261L163 262L162 261M166 261L167 262L166 261M170 261L171 262L170 261M174 261L175 262L174 261M178 261L179 262L178 261M182 261L183 262L182 261M186 261L187 262L186 261M190 261L191 262L190 261M194 261L195 262L194 261M198 261L199 262L198 261M202 261L203 262L202 261M206 261L207 262L206 261M210 261L211 262L210 261M214 261L215 262L214 261M218 261L219 262L218 261M222 261L223 262L222 261M226 261L227 262L226 261M230 261L231 262L230 261M234 261L235 262L234 261M238 261L239 262L238 261M242 261L243 262L242 261M246 261L247 262L246 261M250 261L251 262L250 261M254 261L255 262L254 261M258 261L259 262L258 261M262 261L263 262L262 261M266 261L267 262L266 261M270 261L271 262L270 261M274 261L275 262L274 261M278 261L279 262L278 261M282 261L283 262L282 261M286 261L287 262L286 261M290 261L291 262L290 261M294 261L295 262L294 261M298 261L299 262L298 261M302 261L303 262L302 261M306 261L307 262L306 261M310 261L311 262L310 261M314 261L315 262L314 261M318 261L319 262L318 261M322 261L323 262L322 261M326 261L327 262L326 261M330 261L331 262L330 261M334 261L335 262L334 261M338 261L339 262L338 261M342 261L343 262L342 261M346 261L347 262L346 261M350 261L351 262L350 261M354 261L355 262L354 261M358 261L359 262L358 261M362 261L363 262L362 261M366 261L367 262L366 261M370 261L371 262L370 261M374 261L375 262L374 261M378 261L379 262L378 261M382 261L383 262L382 261M386 261L387 262L386 261M390 261L391 262L390 261M394 261L395 262L394 261M398 261L399 262L398 261M402 261L403 262L402 261M406 261L407 262L406 261M410 261L411 262L410 261M414 261L415 262L414 261M418 261L419 262L418 261M422 261L423 262L422 261M426 261L427 262L426 261M430 261L431 262L430 261M434 261L435 262L434 261M4 263L5 264L4 263M8 263L9 264L8 263M12 263L13 264L12 263M16 263L17 264L16 263M20 263L21 264L20 263M24 263L25 264L24 263M28 263L29 264L28 263M32 263L33 264L32 263M36 263L37 264L36 263M40 263L41 264L40 263M44 263L45 264L44 263M48 263L49 264L48 263M52 263L53 264L52 263M56 263L57 264L56 263M60 263L61 264L60 263M64 263L65 264L64 263M68 263L69 264L68 263M72 263L73 264L72 263M76 263L77 264L76 263M80 263L81 264L80 263M84 263L85 264L84 263M88 263L89 264L88 263M92 263L93 264L92 263M96 263L97 264L96 263M100 263L101 264L100 263M104 263L105 264L104 263M108 263L109 264L108 263M112 263L113 264L112 263M116 263L117 264L116 263M120 263L121 264L120 263M124 263L125 264L124 263M128 263L129 264L128 263M132 263L133 264L132 263M136 263L137 264L136 263M140 263L141 264L140 263M144 263L145 264L144 263M148 263L149 264L148 263M152 263L153 264L152 263M156 263L157 264L156 263M160 263L161 264L160 263M164 263L165 264L164 263M168 263L169 264L168 263M172 263L173 264L172 263M176 263L177 264L176 263M180 263L181 264L180 263M184 263L185 264L184 263M188 263L189 264L188 263M192 263L193 264L192 263M196 263L197 264L196 263M200 263L201 264L200 263M204 263L205 264L204 263M208 263L209 264L208 263M212 263L213 264L212 263M216 263L217 264L216 263M220 263L221 264L220 263M224 263L225 264L224 263M228 263L229 264L228 263M232 263L233 264L232 263M236 263L237 264L236 263M240 263L241 264L240 263M244 263L245 264L244 263M248 263L249 264L248 263M252 263L253 264L252 263M256 263L257 264L256 263M260 263L261 264L260 263M264 263L265 264L264 263M268 263L269 264L268 263M272 263L273 264L272 263M276 263L277 264L276 263M280 263L281 264L280 263M284 263L285 264L284 263M288 263L289 264L288 263M292 263L293 264L292 263M296 263L297 264L296 263M300 263L301 264L300 263M304 263L305 264L304 263M308 263L309 264L308 263M312 263L313 264L312 263M316 263L317 264L316 263M320 263L321 264L320 263M324 263L325 264L324 263M328 263L329 264L328 263M332 263L333 264L332 263M336 263L337 264L336 263M340 263L341 264L340 263M344 263L345 264L344 263M348 263L349 264L348 263M352 263L353 264L352 263M356 263L357 264L356 263M360 263L361 264L360 263M364 263L365 264L364 263M368 263L369 264L368 263M372 263L373 264L372 263M376 263L377 264L376 263M380 263L381 264L380 263M384 263L385 264L384 263M388 263L389 264L388 263M392 263L393 264L392 263M396 263L397 264L396 263M400 263L401 264L400 263M404 263L405 264L404 263M408 263L409 264L408 263M412 263L413 264L412 263M416 263L417 264L416 263M420 263L421 264L420 263M424 263L425 264L424 263M428 263L429 264L428 263M432 263L433 264L432 263z"/>
<path style="fill:#2e8ac3; stroke:none;" d="M1 343L2 344L1 343M434 343L435 344L434 343M2 347L3 348L2 347M433 347L434 348L433 347M3 350L4 351L3 350M432 350L433 351L432 350M4 352L5 353L4 352M431 352L432 353L431 352z"/>
<path style="fill:#1f5572; stroke:none;" d="M5 354L6 355L5 354M430 354L431 355L430 354M7 357L8 358L7 357M428 357L429 358L428 357z"/>
<path style="fill:#2e8ac3; stroke:none;" d="M8 358L9 359L8 358M427 358L428 359L427 358M14 364L15 365L14 364M421 364L422 365L421 364z"/>
<path style="fill:#1f5572; stroke:none;" d="M15 365L16 366L15 365M420 365L421 366L420 365z"/>
<path style="fill:#2e8ac3; stroke:none;" d="M20 368L21 369L20 368M415 368L416 369L415 368M22 369L23 370L22 369M413 369L414 370L413 369z"/>
<path style="fill:#1f5572; stroke:none;" d="M25 370L26 371L25 370z"/>
<path style="fill:#2e8ac3; stroke:none;" d="M26 370L27 371L26 370M409 370L410 371L409 370z"/>
<path style="fill:#1f5572; stroke:none;" d="M410 370L411 371L410 370z"/>
<path style="fill:#2e8ac3; stroke:none;" d="M30.6667 371.333L31.3333 371.667L30.6667 371.333M404.667 371.333L405.333 371.667L404.667 371.333z"/>
</svg>
