<?xml version="1.0" standalone="yes"?>
<svg xmlns="http://www.w3.org/2000/svg" width="1135" height="1135">
<path style="fill:#f76e58; stroke:none;" d="M276 0L276 1L309 1L276 0z"/>
<path style="fill:#fa9b3f; stroke:none;" d="M309 0L310 1L309 0z"/>
<path style="fill:#f76e58; stroke:none;" d="M310 0L310 1L313 1L310 0z"/>
<path style="fill:#fa9b3f; stroke:none;" d="M313 0L314 1L313 0z"/>
<path style="fill:#f76e58; stroke:none;" d="M314 0L314 1L326 1L314 0z"/>
<path style="fill:#fa9b3f; stroke:none;" d="M326 0L326 1L330 1L326 0z"/>
<path style="fill:#f76e58; stroke:none;" d="M330 0L331 1L330 0z"/>
<path style="fill:#fa9b3f; stroke:none;" d="M331 0L331 1L395 1L375 0L331 0z"/>
<path style="fill:#f76e58; stroke:none;" d="M395.667 0.333374L396.333 0.666626L395.667 0.333374z"/>
<path style="fill:#fa9b3f; stroke:none;" d="M397 0L397 1L768 1L735 0L659 0L397 0z"/>
<path style="fill:#f76e58; stroke:none;" d="M768 0L769 1L768 0z"/>
<path style="fill:#fa9b3f; stroke:none;" d="M769 0L769 1L806 1C796.202 -3.11133 779.649 0 769 0z"/>
<path style="fill:#f76e58; stroke:none;" d="M806 0L806 1L821 1L806 0z"/>
<path style="fill:#fa9b3f; stroke:none;" d="M821 0L821 1L824 1L821 0z"/>
<path style="fill:#f76e58; stroke:none;" d="M824 0L824 1L827 1L824 0z"/>
<path style="fill:#fa9b3f; stroke:none;" d="M827 0L827 1L830 1L827 0z"/>
<path style="fill:#f76e58; stroke:none;" d="M830 0L830 1L859 1L830 0z"/>
<path style="fill:#f76e58; stroke:none;" d="M231 1L233 4L231 1z"/>
<path style="fill:#fa9b3f; stroke:none;" d="M232 1C235.238 5.48962 241.954 4 247 4C244.041 -0.563965 236.913 1 232 1z"/>
<path style="fill:#fdfdfd; stroke:none;" d="M246 1L247 4L218 4L218 7L199 7L199 10L186 10L186 13L174 13L174 16L165 16L165 19L157 19L157 22L149 22L149 25L143 25L143 28L137 28L137 31L131 31L131 34L125 34L125 37L120 37L120 40L115 40L115 43L105 46C104.418 50.6802 96.4293 54.9065 92 55L93 58L89 58C82.3688 71.5741 57.1523 81.4637 56 97L47 104L41 113L38 123L35 123L35 128L32 128L32 134L29 134L29 140L26 140L26 147L23 147L23 154L20 154C20.0482 157.808 21.0103 160.526 17 162L17 171L14 171L8 211L5 211L5 233L2 233C2.03586 245.996 3.53078 258.98 2.96065 272C2.62014 279.776 0.0503133 287.333 0.000771605 295.001C-0.959697 443.653 0 592.345 0 741C0 781.566 0.157686 821.801 2.91049 862C3.72789 873.936 1.74733 886.048 2.76389 897.961C6.46674 941.353 20.2101 984.786 43.3102 1022C80.8628 1082.51 151.924 1123.04 222 1129.9C294.191 1136.96 368.337 1133 441 1133L813 1133C846.594 1133 881.877 1135.32 915 1129.74C977.951 1119.13 1038.87 1092.15 1078.79 1039.92C1139.08 961.074 1134 863.057 1134 769L1134 434L1134 325C1134 304.892 1132.36 283.957 1135 264C1127.65 257.003 1131.97 240.332 1131.85 231.039C1131.63 213.704 1122.9 196.477 1123 179L1120 179L1120 169C1116.37 166.819 1116.91 163.914 1117 160L1114 160L1115 152L1111 152L1108 139L1105 139L1105 133L1102 133L1099 122L1096 122L1097 117L1090 112L1091 108L1081 100L1082 95L1063 79C1062.66 74.6353 1061.36 73.3401 1057 73L1038 52L1029 46L1020 40C1016.55 39.7493 1011.54 37.7032 1011 34L1005 34L1005 31L999 31L999 28L993 28L993 25L985 25L985 22L978 22L978 19L970 19L970 16L960 16L960 13L950 13L950 10L936 10L937 7L917 7L918 4L888 4L888 1L246 1z"/>
<path style="fill:#fa9b3f; stroke:none;" d="M888 1L888 4L902 4L902 1L888 1z"/>
<path style="fill:#f76e58; stroke:none;" d="M902 1L902 4L904 4L904 1L902 1M209 4L209 7L211 7L211 4L209 4z"/>
<path style="fill:#fa9b3f; stroke:none;" d="M211 4L211 7L218 7L218 4L211 4M917 7L924 7L924 4L917 7z"/>
<path style="fill:#f76e58; stroke:none;" d="M924 4L924 7L925 7L924 4M194 7L194 10L195 10L194 7z"/>
<path style="fill:#fa9b3f; stroke:none;" d="M195 7L195 10L199 10L199 7L195 7M208 7L209 8L208 7M925 7L926 8L925 7M936 10L940 7L936 10z"/>
<path style="fill:#f76e58; stroke:none;" d="M940 7L942 10L940 7M181 10L183 13L181 10z"/>
<path style="fill:#fa9b3f; stroke:none;" d="M182 10L186 13L182 10M950 10L950 13L952 13L952 10L950 10z"/>
<path style="fill:#f76e58; stroke:none;" d="M952 10L952 13L954 13L954 10L952 10M171 13L170 14L170 15L170 16L173 13L171 13z"/>
<path style="fill:#fa9b3f; stroke:none;" d="M173 13L173 16L174 16L173 13M960 13L960 16L963 16L963 13L960 13z"/>
<path style="fill:#f76e58; stroke:none;" d="M963 13L963 16L964 16L963 13M161 16L161 19L163 19L163 16L161 16z"/>
<path style="fill:#fa9b3f; stroke:none;" d="M163 16L163 19L165 19L165 16L163 16M970 16L970 19L972 19L972 16L970 16z"/>
<path style="fill:#f76e58; stroke:none;" d="M972 16L972 19L973 19L972 16M153 19L152 20L152 21L152 22L155 19L153 19z"/>
<path style="fill:#fa9b3f; stroke:none;" d="M155 19L155 22L157 22L157 19L155 19M978 19L978 22L981 22L981 19L978 19z"/>
<path style="fill:#f76e58; stroke:none;" d="M981 19L981 22L982 22L981 19M146 22L146 25L147 25L146 22z"/>
<path style="fill:#fa9b3f; stroke:none;" d="M147 22L147 25L149 25L149 22L147 22M985 22L985 25L988 25L988 22L985 22z"/>
<path style="fill:#f76e58; stroke:none;" d="M140 25L140 28L141 28L140 25z"/>
<path style="fill:#fa9b3f; stroke:none;" d="M141 25L141 28L143 28L143 25L141 25M993 25L993 28L994 28L993 25z"/>
<path style="fill:#f76e58; stroke:none;" d="M994 25L996 28L994 25M134 28L135 29L134 28z"/>
<path style="fill:#fa9b3f; stroke:none;" d="M135 28L134 29L134 30L134 31L137 28L135 28M999 28L999 31L1000 31L999 28z"/>
<path style="fill:#f76e58; stroke:none;" d="M1000 28L1003 31L1000 28z"/>
<path style="fill:#fa9b3f; stroke:none;" d="M128 31L128 34L131 34L131 31L128 31M1005 31L1005 34L1006 34L1005 31M122 34L122 37L125 37L125 34L122 34M1011 34L1012 37L1011 34z"/>
<path style="fill:#f76e58; stroke:none;" d="M117 37L116 38L116 39L116 40L119 37L117 37z"/>
<path style="fill:#fa9b3f; stroke:none;" d="M119 37L119 40L120 40L119 37M1014 37L1018 40L1014 37M113 40L113 43L115 43L115 40L113 40M1020 40L1020 43L1021 43L1020 40z"/>
<path style="fill:#f76e58; stroke:none;" d="M1021 40L1021 43L1022 43L1021 40M108 43L107 44L107 45L107 46L110 43L108 43z"/>
<path style="fill:#fa9b3f; stroke:none;" d="M110 43L111 44L110 43M1023 43L1027 46L1023 43M104 46L104 49L106 48L106 47L104 46M1029 46L1029 49L1030 49L1029 46M101.333 49.6666L101.667 50.3334L101.333 49.6666M1032 49L1036 52L1032 49z"/>
<path style="fill:#f76e58; stroke:none;" d="M1035 49L1036 50L1035 49z"/>
<path style="fill:#fa9b3f; stroke:none;" d="M95 55L99 52L95 55M1038 52L1038 55L1039 55L1038 52M1041 55L1042 56L1041 55M92.3333 56.6666L92.6667 57.3334L92.3333 56.6666M1044 58L1045 59L1044 58z"/>
<path style="fill:#f76e58; stroke:none;" d="M1045 58L1048 61L1047 58L1045 58z"/>
<path style="fill:#fa9b3f; stroke:none;" d="M86 61L87 62L86 61M1047 61L1054 67L1047 61z"/>
<path style="fill:#f76e58; stroke:none;" d="M1050 61L1051 62L1050 61M81 64L80 65L80 66L80 67L83 64L81 64z"/>
<path style="fill:#fa9b3f; stroke:none;" d="M83 64L84 65L83 64z"/>
<path style="fill:#f76e58; stroke:none;" d="M78 67L77 69L78 67z"/>
<path style="fill:#fa9b3f; stroke:none;" d="M74 73L81 67L74 73M1054 67L1054 70L1057 70L1057 67L1054 67z"/>
<path style="fill:#f76e58; stroke:none;" d="M74 70L75 71L74 70z"/>
<path style="fill:#fa9b3f; stroke:none;" d="M1057 70L1057 73L1060 73L1060 70L1057 70z"/>
<path style="fill:#f76e58; stroke:none;" d="M71 73L71 75L73 73L71 73z"/>
<path style="fill:#fa9b3f; stroke:none;" d="M73 73L67 80C70.2141 78.8383 73.9187 76.8247 73 73M1062 73L1063 74L1062 73z"/>
<path style="fill:#f76e58; stroke:none;" d="M68 76L68 78L70 76L68 76z"/>
<path style="fill:#fa9b3f; stroke:none;" d="M1063 76L1063 79L1066 79L1066 76L1063 76z"/>
<path style="fill:#f76e58; stroke:none;" d="M66 79L65 80L65 81L66 82L67 82L68 81L68 80L66 79z"/>
<path style="fill:#fa9b3f; stroke:none;" d="M1066 79L1066 82L1069 82L1069 79L1066 79M65 81L65 84L66 84L65 81M67 81L68 82L67 81M1069 82L1074 90L1075 90L1071 82L1069 82z"/>
<path style="fill:#f76e58; stroke:none;" d="M1071 82L1072 83L1071 82z"/>
<path style="fill:#fa9b3f; stroke:none;" d="M62.6667 85.3334L63.3333 85.6666L62.6667 85.3334z"/>
<path style="fill:#f76e58; stroke:none;" d="M1073 85L1075 87L1075 85L1073 85z"/>
<path style="fill:#fa9b3f; stroke:none;" d="M59 88L60 89L59 88M56 91L57 92L56 91M1076.67 91.3334L1077.33 91.6666L1076.67 91.3334M53 94L53 97L56 97L56 94L53 94z"/>
<path style="fill:#f76e58; stroke:none;" d="M51 97L50 98L50 99L50 100L53 97L51 97z"/>
<path style="fill:#fa9b3f; stroke:none;" d="M1081 97L1081 100L1084 100L1084 97L1081 97M50 100L51 101L50 100z"/>
<path style="fill:#f76e58; stroke:none;" d="M1084 100L1087 103L1086 100L1084 100z"/>
<path style="fill:#fa9b3f; stroke:none;" d="M47 103L47 104L50 104L47 103M1086 103L1087 104L1086 103M44 106L44 110L47 106L44 106M1087 106L1087 107L1090 107L1087 106M1090 109L1093 113L1090 109z"/>
<path style="fill:#f76e58; stroke:none;" d="M1091.67 109.333L1092.33 109.667L1091.67 109.333z"/>
<path style="fill:#fa9b3f; stroke:none;" d="M41 112L41 113L44 113L41 112z"/>
<path style="fill:#f76e58; stroke:none;" d="M38 115L39 116L38 115z"/>
<path style="fill:#fa9b3f; stroke:none;" d="M39 115L38 119L41 115L39 115M1093 115L1093 116L1096 116L1093 115z"/>
<path style="fill:#f76e58; stroke:none;" d="M1096 118L1099 121L1096 118z"/>
<path style="fill:#fa9b3f; stroke:none;" d="M35 121L35 123L38 123L38 121L35 121M1096 121L1096 122L1099 122L1096 121M1099 124L1102 128L1099 124z"/>
<path style="fill:#f76e58; stroke:none;" d="M1100.67 124.333L1101.33 124.667L1100.67 124.333z"/>
<path style="fill:#fa9b3f; stroke:none;" d="M32 127L32 128L35 128L32 127z"/>
<path style="fill:#f76e58; stroke:none;" d="M31 130L29 132L29 133C31.2507 132.527 32.1178 132.14 31 130z"/>
<path style="fill:#fa9b3f; stroke:none;" d="M1102 130L1105 133L1104 130L1102 130z"/>
<path style="fill:#f76e58; stroke:none;" d="M1104 130L1105 131L1104 130z"/>
<path style="fill:#fa9b3f; stroke:none;" d="M29 133L29 134L32 134L29 133M1105 136L1108 139L1105 136z"/>
<path style="fill:#f76e58; stroke:none;" d="M1106.67 136.333L1107.33 136.667L1106.67 136.333M26 138L27 139L26 138M28 138L29 139L28 138z"/>
<path style="fill:#fa9b3f; stroke:none;" d="M26 139L26 140L29 140L26 139z"/>
<path style="fill:#f76e58; stroke:none;" d="M1108 142L1108 143L1111 143L1108 142z"/>
<path style="fill:#fa9b3f; stroke:none;" d="M1108 143L1111 146L1108 143M23 145L23 147L26 147L26 145L23 145z"/>
<path style="fill:#3fc6ed; stroke:none;" d="M373 427C380.215 424.265 386.146 418.805 393 415.258C407.901 407.548 422.378 402.634 439 400.424C448.128 399.211 458.054 400.161 467 402.235C538.696 418.86 535.978 507.066 536 565C536.007 582.747 535.349 600.593 539.35 618C541.126 625.725 544.539 634.946 553 637.486C577.419 644.818 593.928 607.61 602.702 591C628.807 541.581 652.736 475.738 714 461.679C722.614 459.702 731.275 459.236 740 460C748.531 460.747 757.062 462.255 765 465.58C801.687 480.949 808.463 526.08 810.911 561C812.092 577.857 809.056 616.589 829.001 623.74C844.696 629.367 860.63 616.101 871 605.985C899.94 577.754 922.837 546.579 957 523.742C972.904 513.111 990.089 506.152 1009 503.576C1012.29 503.128 1031.44 501.002 1027.49 509.076C1024.88 514.422 1012.06 516.44 1007 519.12C992.677 526.699 980.326 537.449 969.334 549.3C960.553 558.767 952.372 568.672 944.627 579C938.462 587.22 932.729 595.745 926.623 604C898.86 641.535 858.124 695.136 804 675.407C797.129 672.902 790.654 669.177 785 664.536C750.485 636.198 758.691 588.958 753.576 550C751.374 533.232 750.26 511.28 727 515.329C700.878 519.876 686.249 551.956 675.753 573C651.737 621.15 626.793 698.682 561 698.999C553.62 699.035 546.25 699.108 539 697.486C505.79 690.059 486.095 660.766 479.601 629C469.713 580.627 482.662 528.717 470.076 481C461.209 447.383 427.102 463.093 408 477.888C397.12 486.316 377.41 502.537 372.947 516C371.305 520.952 373 528.721 373 534L373 576L373 658C373 693.799 374.301 732.452 410 751.691C427.935 761.356 448.222 761 468 761L543 761L827 761L894 761C915.464 761 935.573 761.489 955 750.88C980.024 737.215 986.224 711.86 989.286 686C993.675 648.919 990 609.36 990 572C990 560.122 988.275 546.767 990.147 535.043C991.691 525.376 1012.06 518.751 1020 515.781C1024.24 514.194 1030.93 512.011 1029.52 506.101C1028.45 501.612 1022.92 500.458 1019 500.67C1009.13 501.203 999.683 503.82 990 505L990 270C990 235.599 995.371 194.394 969.826 167.039C939.164 134.204 879.403 145 839 145L517 145C475.505 145 420.958 135.368 390.329 169.911C370.589 192.172 372 225.132 372 253C372 311.032 373 368.939 373 427z"/>
<path style="fill:#f76e58; stroke:none;" d="M1111 149L1111 151L1114 151L1114 149L1111 149M20 151L20 152L23 152L20 151z"/>
<path style="fill:#fa9b3f; stroke:none;" d="M1111 151L1111 152L1114 152L1111 151M20 152L20 154L23 154L23 152L20 152z"/>
<path style="fill:#f76e58; stroke:none;" d="M1114 153L1115 154L1114 153M1114 157L1114 158L1117 158L1114 157z"/>
<path style="fill:#fa9b3f; stroke:none;" d="M1114 158L1114 160L1117 160L1117 158L1114 158z"/>
<path style="fill:#f76e58; stroke:none;" d="M17 159L17 160L20 160L17 159z"/>
<path style="fill:#fa9b3f; stroke:none;" d="M20 159L21 160L20 159M17 160L17 162L20 162L20 160L17 160M1116 165L1117 166L1116 165M1117 166L1117 169L1120 169L1120 166L1117 166z"/>
<path style="fill:#f76e58; stroke:none;" d="M14 167L14 169L17 169L17 167L14 167z"/>
<path style="fill:#fa9b3f; stroke:none;" d="M14 169L14 171L17 171L17 169L14 169z"/>
<path style="fill:#f76e58; stroke:none;" d="M1120 175L1120 176L1123 176L1120 175z"/>
<path style="fill:#fa9b3f; stroke:none;" d="M1120 176L1120 179L1123 179L1123 176L1120 176M14 177L15 178L14 177z"/>
<path style="fill:#f76e58; stroke:none;" d="M11 178L11 179L14 179L11 178z"/>
<path style="fill:#fa9b3f; stroke:none;" d="M11 182L14 179L11 182z"/>
<path style="fill:#f76e58; stroke:none;" d="M1123 185L1126 188L1123 185z"/>
<path style="fill:#fa9b3f; stroke:none;" d="M1122 186L1123 187L1122 186M11 187L11 190L12 190L11 187M1123 187L1126 192L1123 187z"/>
<path style="fill:#f76e58; stroke:none;" d="M8 189L11 191L8 189z"/>
<path style="fill:#fa9b3f; stroke:none;" d="M8 190L8 195L11 194L11 191L8 190M1125.33 197.667L1125.67 198.333L1125.33 197.667z"/>
<path style="fill:#f76e58; stroke:none;" d="M1126 199L1126 201L1129 201L1129 199L1126 199z"/>
<path style="fill:#fa9b3f; stroke:none;" d="M8 200L8 203L9 203L8 200M1126 201L1129 207L1129 201L1126 201z"/>
<path style="fill:#f76e58; stroke:none;" d="M5 203L5 205L8 205L8 203L5 203z"/>
<path style="fill:#fa9b3f; stroke:none;" d="M5 205L5 211L8 211L8 205L5 205M1128 212L1128 216L1129 216L1128 212M5 216L5 221L6 221L5 216z"/>
<path style="fill:#f76e58; stroke:none;" d="M1129 216L1129 219L1132 219L1132 216L1129 216z"/>
<path style="fill:#fa9b3f; stroke:none;" d="M1129 219L1132 227L1132 219L1129 219z"/>
<path style="fill:#f76e58; stroke:none;" d="M2 221L2 224L5 224L5 221L2 221z"/>
<path style="fill:#fa9b3f; stroke:none;" d="M2 224L2 233L5 233L5 224L2 224M1131 234L1131 241L1132 241L1131 234M2 241L2 250L3 250L2 241z"/>
<path style="fill:#f76e58; stroke:none;" d="M1132 242L1132 258L1135 258C1135 252.44 1136.23 246.141 1132 242z"/>
<path style="fill:#fa9b3f; stroke:none;" d="M1131 247L1132 248L1131 247M1131 249C1131 254.233 1130.07 260.893 1135 264L1135 258L1132 258L1131 249z"/>
<path style="fill:#f76e58; stroke:none;" d="M0 252L0 276L2 276L2 252L0 252z"/>
<path style="fill:#fa9b3f; stroke:none;" d="M2 258L0 288L2 288L2 258M1134 265L1134 268L1135 268L1134 265M1134 270L1134 863.999L1129 916L1130 916C1134.38 903.991 1132 888.672 1132 876L1135 876L1135 446L1135 322L1135 287L1134 270M758 761L758 762L771 762C769.901 775.908 763.526 789.123 758.633 802C744.509 839.166 722.459 872.56 695.997 902.036C674.082 926.447 648.107 946.773 620 963.6C459.997 1059.39 244.566 993.933 161.247 828C143.618 792.89 130 752.046 130 713L131 713L133 734L134 734L138 699L139 699L139 709L140 709L143 697L151 694C152.013 698.726 159.005 697 163 697L163 700L176 700L176 697L182 697L195.604 682.741L212 661L215 667C216.232 650 231.792 629.076 239.291 613.87C263.622 564.532 290.931 513.874 327 472C336.486 460.987 346.15 450.215 356.83 440.325C361.288 436.197 370.052 431.528 372.397 425.826C376.304 416.326 373 399.268 373 389C373 382.416 375.362 370.252 372.397 364.322C370.233 359.995 362.255 364.144 359 364.965C344.859 368.535 331.386 374.604 318 380.291C261.983 404.088 213.508 446.777 179.742 497C93.2335 625.67 110.422 802.493 219.086 912.975C248.622 943.005 283.935 965.783 322 983.36C355.327 998.748 393.468 1007.41 430 1009.91C532.715 1016.94 633.547 975.873 702.004 898.961C727.56 870.248 748.77 836.035 762.316 800C765.774 790.799 769.052 781.483 771.64 772C772.328 769.478 774.668 765.074 772.929 762.603C770.659 759.378 761.482 761 758 761z"/>
<path style="fill:#05263b; stroke:none;" d="M438 400.424C398.321 405.698 367.6 428.732 340.7 457.17C293.664 506.895 261.257 570.641 232.219 632C220.617 656.516 202.771 685.869 199.289 713C197.292 728.564 208.317 743.166 223 747.56C262.905 759.502 274.928 699.312 286.281 673C311.875 613.679 340.341 553.435 382.729 504C398.094 486.081 421.276 460.959 447 460.456C477.81 459.854 473.525 512.022 474.015 532C475.436 590.021 466.742 689.236 546 698.714C620.587 707.635 648.117 630.043 674.756 576C685.418 554.37 702 517.342 730 515.093C757.005 512.924 754.548 555.164 754.985 573C756.064 617.041 766.244 678.726 823 678.999C830.784 679.037 838.426 678.735 846 676.711C908.797 659.925 933.167 582.193 977.666 541.707C992.289 528.402 1006.28 520.851 1023.95 512.532C1027 511.094 1030.25 506.979 1026.47 504.179C1023.2 501.758 1015.84 502.826 1012 503.089C997.463 504.085 983.839 508.551 971 515.222C935.671 533.579 908.863 562.142 883.271 592C872.283 604.819 854.079 626.419 835 624.812C809.621 622.674 811.84 579.069 810.961 561C809.366 528.172 802.931 485.323 771 467.959C761.032 462.539 750.095 461.021 739 459.834C729.581 458.826 719.136 459.701 710 462.508C649.534 481.089 628.43 542.443 601.08 593C592.947 608.035 576.296 644.178 554 637.486C545.611 634.968 541.391 625.794 539.579 618C535.448 600.225 536.007 582.133 536 564C535.978 506.39 538.832 416.288 466 401.808C456.975 400.014 447.149 399.208 438 400.424z"/>
<path style="fill:#f76e58; stroke:none;" d="M372 427L373 428L372 427M368 431L372 428L368 431M366 431L366 433L368 431L366 431M364.667 433.333L365.333 433.667L364.667 433.333M363 434L364 435L363 434M362 435L363 436L362 435M361 436L362 437L361 436M359 437L359 439L361 437L359 437M354 443L359 439L354 443M353 443L354 444L353 443M352 444L353 445L352 444M351 445L352 446L351 445M350 446L351 447L350 446M349 447L350 448L349 447M348 448L349 449L348 448M347 449L348 450L347 449M346 450L347 451L346 450M345 451L346 452L345 451M344 452L342 455L344 452M341 455L338 460L341 455M336 460L336 462L338 460L336 460M335 462L336 463L335 462M334 463L335 464L334 463M333 464L334 465L333 464M332 465L330 469L332 465M329 469L330 470L329 469M328 470L329 471L328 470M327 471L324 476L327 471M323 476L319 482L323 476M318 482L317 485L318 482M316 485L317 486L316 485M315 486L314 489L315 486M313 489L310 494L313 489M309.333 494.667L309.667 495.333L309.333 494.667M308 496L303 504L308 496M302.333 504.667L302.667 505.333L302.333 504.667M300 506L297 513L302 506L300 506M296.333 513.667L296.667 514.333L296.333 513.667M294 515L291 522L296 515L294 515M371 518C339.089 558.211 314.512 605.923 294.421 653C287.603 668.978 280.204 684.808 273.911 701C269.435 712.518 265.657 726.376 257.671 735.999C239.134 758.337 201.665 747.995 199.188 718C198.431 708.831 203.265 699.267 206.604 691C213.539 673.829 221.03 656.79 228.836 640C236.668 623.156 244.933 606.522 253.424 590C257.604 581.867 263.414 573.793 266 565L250.923 590L224.141 643.911L215 667L212 661L194.83 682.741L182 697L176 697L176 700L163 700L163 697C158.614 697 153.615 698.033 151 694L143 697L140 709L139 709L139 699L138 699L134 734L133 734L131 713L130 713C130 746.791 140.17 780.715 153.448 812C166.886 843.66 185.695 872.666 208.29 898.537C319.958 1026.4 521.749 1044.4 655.17 940.41C697.73 907.237 730.518 865.076 753.119 816.17C760.653 799.866 770.219 780.187 771 762L501 762C461.551 762 416.08 767.514 388.206 733.576C360.997 700.448 371 643.909 371 604L370 604L365 664L362 664L362 670L359 670L359 676L350 682L350 688L344 691L344 697L335 697L332 703L328 703L328 700L322 700L322 670L325 670L340 613C346.915 610.547 357.48 589.174 358 582L361 579C364.922 578.352 365.985 576.764 367 573L368 573L370 601L371 601C371 585.523 369.704 569.406 371.17 554C372.131 543.899 374.98 527.485 371 518z"/>
<path style="fill:#fa9b3f; stroke:none;" d="M372 519L371 601L370 601L368 573L367 573L361 579L358 582C356.877 589.727 346.76 609.015 340 613C337.103 632.342 323.578 649.864 325 670L322 670L322 700L328 700L328 703L332 703L335 697L344 697L344 691L350 688L350 682L359 676L359 670L362 670L362 664L365 664L370 604L371 604C371 641.273 363.82 687.386 380 722L381 722L374.17 692L373 583L373 539L372 519z"/>
<path style="fill:#f76e58; stroke:none;" d="M290 522L287 529L288 529L290 522M285 529L278 544L279 544L287 529L285 529M276 544L266 565L267 565L278 544L276 544M214 655L214 659L215 659L214 655M127 664L127 707L128 707C131.122 696.438 131.287 674.212 127 664z"/>
<path style="fill:#fa9b3f; stroke:none;" d="M210 667L210 673L212 673L212 667L210 667M208 674L208 680L209 680L208 674M205 683L205 687L206 687L205 683M202.333 692.667L202.667 693.333L202.333 692.667M199 699L200 700L199 699M381 722L383 728L384 728L381 722M384 728L385 729L384 728M385 729L386 730L385 729M386.333 730.667L386.667 731.333L386.333 730.667M387 732L387 734L389 734L387 732M389 734L390 735L389 734M390 736L391 737L390 736M391 737L392 738L391 737M392 738L393 739L392 738M393 739L394 740L393 739M394 740L395 741L394 740M395 741L396 742L395 741M396 742L397 743L396 742M397.667 743.333L398.333 743.667L397.667 743.333M399.667 745.333L400.333 745.667L399.667 745.333M401 746L402 747L401 746M402 747L403 748L402 747M404 748L405 749L404 748M405.667 749.333L406.333 749.667L405.667 749.333M407 750L408 751L407 750M408.667 751.333L409.333 751.667L408.667 751.333M411 752L412 753L411 752M413 753L414 754L413 753M414.667 754.333L415.333 754.667L414.667 754.333M417.667 755.333L418.333 755.667L417.667 755.333M420 756L421 757L420 756M422 757L422 758L425 758L422 757M426 758L426 759L430 759L426 758M431 759L431 760L434 760L431 759M437 760L437 761L443 761L437 760M456 761L456 762L736 762L711 761L654 761L456 761M752 761L752 762L756 762L752 761M0 847L2 878L3 878L2 847L0 847z"/>
<path style="fill:#f76e58; stroke:none;" d="M0 858L1 882L2 882L2 858L0 858M1132 876L1132 892L1133 892L1135 876L1132 876z"/>
<path style="fill:#fa9b3f; stroke:none;" d="M2.33333 879.667L2.66667 880.333L2.33333 879.667z"/>
<path style="fill:#fa9b3f; stroke:none;" d="M2 882L2 897L3 897L2 882z"/>
<path style="fill:#fa9b3f; stroke:none;" d="M2 898L4 910L5 910L2 898z"/>
<path style="fill:#f76e58; stroke:none;" d="M2 906L5 913L2 906z"/>
<path style="fill:#fa9b3f; stroke:none;" d="M5 912C5 927.848 8.69483 943.261 13.456 958.17C15.1192 963.378 15.3572 971.652 20 975L9.46991 938L5 912z"/>
<path style="fill:#f76e58; stroke:none;" d="M1131 912L1129 918C1131.55 916.35 1132.1 914.88 1131 912z"/>
<path style="fill:#fa9b3f; stroke:none;" d="M1128 917L1126 934C1129.97 930.113 1130.11 922.027 1128 917z"/>
<path style="fill:#f76e58; stroke:none;" d="M5 928L8 932L5 928M1128 932L1126 935C1128.25 934.527 1129.12 934.14 1128 932z"/>
<path style="fill:#fa9b3f; stroke:none;" d="M1125 935L1123 947C1126.87 944.493 1126.68 938.997 1125 935z"/>
<path style="fill:#f76e58; stroke:none;" d="M8 943L11 945L11 944L8 943M1125 946L1123 949L1125 946z"/>
<path style="fill:#fa9b3f; stroke:none;" d="M1122 948C1121.58 962.413 1113.14 977.728 1108 991C1111.4 988.807 1112.73 983.769 1114.16 980C1117.33 971.572 1125.7 956.826 1122 948z"/>
<path style="fill:#f76e58; stroke:none;" d="M11 955L14 957L14 956L11 955M1120 960L1123 958L1120 960M14 965L15 966L14 965M15.6667 966.333L16.3333 966.667L15.6667 966.333M1119 967L1117 968L1117 969L1119 967M17.6667 974.333L18.3333 974.667L17.6667 974.333z"/>
<path style="fill:#fa9b3f; stroke:none;" d="M20 975L23 982L20 975z"/>
<path style="fill:#f76e58; stroke:none;" d="M1114 978L1117 976L1114 978M20 981L23 984L20 981z"/>
<path style="fill:#fa9b3f; stroke:none;" d="M23 983C23.0135 986.194 22.5971 988.271 26 989L23 983z"/>
<path style="fill:#f76e58; stroke:none;" d="M1113 983L1114 984L1113 983M1111.67 984.333L1112.33 984.667L1111.67 984.333M23 989L23 990L26 990L23 989z"/>
<path style="fill:#fa9b3f; stroke:none;" d="M26 990L29 996L26 990z"/>
<path style="fill:#f76e58; stroke:none;" d="M1110 990L1111 991L1110 990M1108.67 991.333L1109.33 991.667L1108.67 991.333z"/>
<path style="fill:#fa9b3f; stroke:none;" d="M1107 992L1105 998C1107.46 996.234 1108.12 994.881 1107 992z"/>
<path style="fill:#f76e58; stroke:none;" d="M26 995L27 996L26 995z"/>
<path style="fill:#fa9b3f; stroke:none;" d="M29 996L32 1002L29 996z"/>
<path style="fill:#f76e58; stroke:none;" d="M1106.67 997.333L1107.33 997.667L1106.67 997.333M1105 998L1106 999L1105 998z"/>
<path style="fill:#fa9b3f; stroke:none;" d="M1104 999L1102 1004L1104 999z"/>
<path style="fill:#f76e58; stroke:none;" d="M29 1001L30 1002L29 1001z"/>
<path style="fill:#fa9b3f; stroke:none;" d="M32 1002L35 1008L32 1002z"/>
<path style="fill:#f76e58; stroke:none;" d="M1103.67 1003.33L1104.33 1003.67L1103.67 1003.33M1102 1004L1103 1005L1102 1004z"/>
<path style="fill:#fa9b3f; stroke:none;" d="M1101 1005L1096 1013L1096 1014C1098.88 1012.22 1101.85 1008.49 1101 1005z"/>
<path style="fill:#f76e58; stroke:none;" d="M32.6667 1007.33L33.3333 1007.67L32.6667 1007.33z"/>
<path style="fill:#fa9b3f; stroke:none;" d="M35 1008L38 1013L35 1008z"/>
<path style="fill:#f76e58; stroke:none;" d="M1099 1010L1102 1008L1099 1010M35 1012L36 1013L35 1012M36.6667 1013.33L37.3333 1013.67L36.6667 1013.33M1098 1013L1099 1014L1098 1013z"/>
<path style="fill:#fa9b3f; stroke:none;" d="M38 1014L41 1017L41 1016L38 1014M1095 1014L1093 1020C1095.46 1018.23 1096.12 1016.88 1095 1014z"/>
<path style="fill:#f76e58; stroke:none;" d="M38 1017L41 1019L38 1017z"/>
<path style="fill:#fa9b3f; stroke:none;" d="M41 1018L44 1023L41 1018z"/>
<path style="fill:#f76e58; stroke:none;" d="M1094 1019L1095 1020L1094 1019z"/>
<path style="fill:#fa9b3f; stroke:none;" d="M1092 1020L1087 1029L1092 1020z"/>
<path style="fill:#f76e58; stroke:none;" d="M41 1022L42 1023L41 1022z"/>
<path style="fill:#fa9b3f; stroke:none;" d="M44 1023L47 1027L44 1023z"/>
<path style="fill:#f76e58; stroke:none;" d="M1090 1025L1093 1024L1090 1025M44 1026L45 1027L44 1026M45 1027L47 1029L47 1027L45 1027z"/>
<path style="fill:#fa9b3f; stroke:none;" d="M47 1028L50 1032L47 1028z"/>
<path style="fill:#f76e58; stroke:none;" d="M1088 1028L1089 1029L1088 1028z"/>
<path style="fill:#fa9b3f; stroke:none;" d="M1086 1029L1078 1041C1081.3 1039.14 1087.05 1032.99 1086 1029z"/>
<path style="fill:#f76e58; stroke:none;" d="M47 1031L48 1032L47 1031z"/>
<path style="fill:#fa9b3f; stroke:none;" d="M50 1032L59 1044L50 1032z"/>
<path style="fill:#f76e58; stroke:none;" d="M1084 1032L1085 1033L1084 1032M51.6667 1035.33L52.3333 1035.67L51.6667 1035.33M1083 1036L1084 1037L1083 1036M1081.67 1037.33L1082.33 1037.67L1081.67 1037.33M53 1038L53 1040L55 1040L53 1038M55 1040L56 1041L55 1040M1080 1040L1081 1041L1080 1040z"/>
<path style="fill:#fa9b3f; stroke:none;" d="M1077 1041L1075 1043L1075 1044L1077 1041z"/>
<path style="fill:#f76e58; stroke:none;" d="M56 1042L57 1043L56 1042M57 1043L58 1044L57 1043M1077 1043L1078 1044L1077 1043z"/>
<path style="fill:#fa9b3f; stroke:none;" d="M59 1044L62 1047L62 1046L59 1044M1074 1044L1042 1076L1042 1077C1051.7 1072.47 1061.19 1062.23 1067.87 1054C1070 1051.38 1074.92 1047.51 1074 1044z"/>
<path style="fill:#f76e58; stroke:none;" d="M59 1046L60 1047L59 1046z"/>
<path style="fill:#fa9b3f; stroke:none;" d="M62 1047L65 1050L65 1049L62 1047z"/>
<path style="fill:#f76e58; stroke:none;" d="M1072 1047L1072 1049L1074 1047L1072 1047M62 1049L63 1050L62 1049z"/>
<path style="fill:#fa9b3f; stroke:none;" d="M65 1050C67.0114 1056.32 79.6783 1068.99 86 1071L86 1070L65 1050z"/>
<path style="fill:#f76e58; stroke:none;" d="M1069 1053L1072 1050L1069 1053M67 1053L68 1054L67 1053M1068 1053L1066 1056L1068 1053M69 1056L71 1058L71 1056L69 1056M1065 1057L1066 1058L1065 1057M1063.67 1058.33L1064.33 1058.67L1063.67 1058.33M72 1059L74 1061L74 1059L72 1059M1062 1060L1063 1061L1062 1060M1061 1061L1062 1062L1061 1061M75 1062L77 1064L77 1062L75 1062M1059.33 1062.67L1059.67 1063.33L1059.33 1062.67M1058 1064L1059 1065L1058 1064M78 1065L80 1067L80 1065L78 1065M1056.33 1065.67L1056.67 1066.33L1056.33 1065.67M1054.67 1067.33L1055.33 1067.67L1054.67 1067.33M82 1068L83 1069L82 1068M1053 1068L1054 1069L1053 1068M1052 1069L1053 1070L1052 1069M1051 1070L1052 1071L1051 1070z"/>
<path style="fill:#fa9b3f; stroke:none;" d="M86 1071L89 1074L89 1073L86 1071z"/>
<path style="fill:#f76e58; stroke:none;" d="M1048 1071L1048 1073L1050 1071L1048 1071M86 1073L87 1074L86 1073z"/>
<path style="fill:#fa9b3f; stroke:none;" d="M89 1074L101 1083L101 1082L89 1074z"/>
<path style="fill:#f76e58; stroke:none;" d="M1045 1074L1046 1075L1045 1074M89 1075L90 1076L89 1075M1044 1076L1045 1077L1044 1076M92.3333 1077.67L92.6667 1078.33L92.3333 1077.67z"/>
<path style="fill:#fa9b3f; stroke:none;" d="M1041 1077L1030 1085L1030 1086L1033 1083C1036.31 1082.51 1041.15 1080.88 1041 1077z"/>
<path style="fill:#f76e58; stroke:none;" d="M93 1079L94 1080L93 1079M1041 1079L1042 1080L1041 1079M96 1080L98 1083L96 1080M1038.33 1080.67L1038.67 1081.33L1038.33 1080.67M1037 1082L1038 1083L1037 1082z"/>
<path style="fill:#fa9b3f; stroke:none;" d="M101 1083C103.98 1088.25 113.116 1093.83 119 1095L119 1094L101 1083z"/>
<path style="fill:#f76e58; stroke:none;" d="M1033 1083L1033 1085L1035 1083L1033 1083M101 1085L102 1086L101 1085M104 1086L105 1087L104 1086z"/>
<path style="fill:#fa9b3f; stroke:none;" d="M1029 1086L1021 1091L1021 1092C1023.92 1091.32 1029.14 1089.38 1029 1086z"/>
<path style="fill:#f76e58; stroke:none;" d="M1029.33 1087.67L1029.67 1088.33L1029.33 1087.67M105.667 1088.33L106.333 1088.67L105.667 1088.33M108 1089L110 1091L110 1089L108 1089M1025 1089L1025 1091L1027 1089L1025 1089M110 1091L111 1092L110 1091M1024 1091L1025 1092L1024 1091M113.333 1092.67L113.667 1093.33L113.333 1092.67z"/>
<path style="fill:#fa9b3f; stroke:none;" d="M1020 1092L1012 1097L1012 1098L1020 1092z"/>
<path style="fill:#f76e58; stroke:none;" d="M114.667 1094.33L115.333 1094.67L114.667 1094.33M1019.67 1094.33L1020.33 1094.67L1019.67 1094.33z"/>
<path style="fill:#fa9b3f; stroke:none;" d="M119 1095C124.044 1103.17 145.575 1112.31 155 1113L155 1112L119 1095z"/>
<path style="fill:#f76e58; stroke:none;" d="M1016 1095L1015 1098L1016 1095M119 1097L120 1098L119 1097M123 1098L125 1101L123 1098z"/>
<path style="fill:#fa9b3f; stroke:none;" d="M1006 1100L1006 1101L1011 1098L1006 1100z"/>
<path style="fill:#f76e58; stroke:none;" d="M1011.33 1098.67L1011.67 1099.33L1011.33 1098.67M1009.67 1100.33L1010.33 1100.67L1009.67 1100.33M128 1101L129 1102L128 1101z"/>
<path style="fill:#fa9b3f; stroke:none;" d="M1003 1101L1000 1103L1000 1104L1005 1101L1003 1101z"/>
<path style="fill:#f76e58; stroke:none;" d="M1005.33 1101.67L1005.67 1102.33L1005.33 1101.67M129 1102L130 1103L129 1102M130 1103L131 1104L130 1103M1004 1103L1005 1104L1004 1103M134 1104L135 1105L134 1104z"/>
<path style="fill:#fa9b3f; stroke:none;" d="M994 1106L994 1107L1000 1104L994 1106z"/>
<path style="fill:#f76e58; stroke:none;" d="M135 1105L136 1106L135 1105M999 1105L1000 1106L999 1105M136 1106L137 1107L136 1106M998 1106L999 1107L998 1106M140 1107L141 1108L140 1107z"/>
<path style="fill:#fa9b3f; stroke:none;" d="M972 1115L972 1116C978.696 1115.64 989.351 1111.82 994 1107L972 1115z"/>
<path style="fill:#f76e58; stroke:none;" d="M141 1108L142 1109L141 1108M993 1108L994 1109L993 1108M142 1109L143 1110L142 1109M992 1109L993 1110L992 1109M147 1110L149 1112L149 1110L147 1110M987 1110L985 1113L987 1110M149 1112L150 1113L149 1112z"/>
<path style="fill:#fa9b3f; stroke:none;" d="M155 1113C163.257 1121.44 182.914 1122.78 194 1125.47C236.655 1135.81 280.966 1134 325 1134L788 1134C833.898 1134 880.087 1136.15 925 1128.26C937.141 1126.13 949.258 1124.93 961 1120.58C964.606 1119.24 968.712 1119.24 971 1116C918.031 1132.56 865.226 1133 810 1133L666 1133L413 1133C350.412 1133 283.863 1139.12 222 1129.79C199.055 1126.33 177.566 1118.31 155 1113z"/>
<path style="fill:#f76e58; stroke:none;" d="M979 1113L979 1115L981 1113L979 1113M155 1114L156 1115L155 1114M156 1115L157 1116L156 1115M977.667 1115.33L978.333 1115.67L977.667 1115.33M162 1116L164 1118L164 1116L162 1116M971 1116L971 1118L973 1116L971 1116M164.667 1118.33L165.333 1118.67L164.667 1118.33M969.667 1118.33L970.333 1118.67L969.667 1118.33M171 1119L175 1122L171 1119M959 1121L959 1122L964 1119L959 1121M182 1122L182 1124L184 1124L182 1122M952 1122L953 1123L952 1122M951 1123L952 1124L951 1123M184 1124L184 1125L187 1125L184 1124M949.667 1124.33L950.333 1124.67L949.667 1124.33M194 1125L200 1128L200 1127L194 1125M935 1127L935 1128L941 1125L935 1127M209 1128L209 1129L217 1131L209 1128M918 1130L918 1131L926 1129L918 1130M231 1131L231 1132L245 1134L231 1131M890 1133L890 1134L904 1132L890 1133M308 1134L309 1135L308 1134z"/>
<path style="fill:#f76e58; stroke:none;" d="M310.667 1134.33L311.333 1134.67L310.667 1134.33z"/>
<path style="fill:#f76e58; stroke:none;" d="M330 1134L330 1135L809 1135C798.02 1130.39 778.944 1134 767 1134L669 1134L330 1134z"/>
</svg>
