<?xml version="1.0" standalone="no"?>
<svg xmlns="http://www.w3.org/2000/svg" xmlns:xlink="http://www.w3.org/1999/xlink" width="800" height="800" stroke-linecap="round"><rect fill="transparent" width="800" height="800"/><g><path d="M533.333 734.227 C525.604 698.466, 533.54 675.289, 533.333 638.56 M533.333 734.227 C533.238 699.849, 530.799 668.03, 533.333 638.56 M533.333 638.56 C536.115 624.325, 525.58 599.422, 527.033 591.687 M533.333 638.56 C528.097 620.536, 533.509 614.397, 527.033 591.687 M527.033 591.687 C525.42 577.442, 511.572 565.322, 502 551.56 M527.033 591.687 C530.113 580.018, 521.229 555.567, 502 551.56 M502 551.56 C603.673 546.283, 721.82 494.317, 716.667 318.226 M502 551.56 C598.588 536.042, 716.144 491.114, 716.667 318.226 M716.667 318.226 C711.65 270.115, 705.846 221.668, 666.667 193.226 M716.667 318.226 C720.288 278.993, 704.922 218.617, 666.667 193.226 M666.667 193.226 C683.418 158.149, 681.535 113.703, 663.667 67.56 M666.667 193.226 C684.527 160.388, 687.548 98.974, 663.667 67.56 M663.667 67.56 C663.16 68.761, 624.354 54.206, 533.333 116.893 M663.667 67.56 C659.22 75.817, 625.383 63.897, 533.333 116.893 M533.333 116.893 C463.404 99.195, 382.894 100.66, 300 116.893 M533.333 116.893 C458.867 89.072, 384.309 94.152, 300 116.893 M300 116.893 C206.875 49.653, 169.522 60.207, 169.666 67.56 M300 116.893 C211.019 54.381, 163.008 73.249, 169.666 67.56 M169.666 67.56 C158.328 107.975, 158.159 155.696, 166.666 193.226 M169.666 67.56 C155.038 102.151, 153.903 144.53, 166.666 193.226 M166.666 193.226 C130.439 231.776, 112.73 266.362, 116.666 319.226 M166.666 193.226 C126.324 233.532, 116.496 278.421, 116.666 319.226 M116.666 319.226 C123.319 500.916, 227.035 531.589, 331.333 552.56 M116.666 319.226 C112.317 503.512, 233.804 531.889, 331.333 552.56 M331.333 552.56 C314.414 563.343, 308.202 579.191, 306.51 592.223 M331.333 552.56 C329.382 557.772, 318.314 569.932, 306.51 592.223 M306.51 592.223 C297.611 605.484, 306.407 622.819, 300 638.56 M306.51 592.223 C300.296 605.348, 299.301 615.791, 300 638.56 M300 638.56 C298.195 660.53, 295.451 683.798, 300 734.227 M300 638.56 C303.218 669.039, 297.354 706.359, 300 734.227" stroke="white" stroke-width="50" fill="none"/></g><g><path d="M300 667.557 C195.105 704.042, 117.177 673.227, 66.667 567.557" stroke="white" stroke-width="50" fill="none"/></g></svg>