<?xml version="1.0" standalone="no"?>
<svg xmlns="http://www.w3.org/2000/svg" xmlns:xlink="http://www.w3.org/1999/xlink" width="540" height="100" stroke-linecap="round"><rect fill="none" height="100" width="540"/><g><path d="M0 0 C0 0, 0 0, 0 0 M0 0 C0 0, 0 0, 0 0 M2.126 0.721 C2.322 0.333, 2.528 0.091, 2.835 0.016 M2.126 0.721 C2.311 0.567, 2.497 0.446, 2.835 0.016 M4.962 0.737 C5.151 0.68, 5.487 0.316, 5.671 0.032 M4.962 0.737 C5.276 0.57, 5.374 0.323, 5.671 0.032 M7.088 1.457 C7.399 0.751, 7.993 0.036, 8.506 0.047 M7.088 1.457 C7.77 1.094, 7.929 0.503, 8.506 0.047 M9.214 2.178 C9.857 1.684, 10.46 1.089, 11.342 0.063 M9.214 2.178 C9.882 1.089, 10.946 0.777, 11.342 0.063 M11.34 2.899 C11.954 1.39, 13.523 1.959, 14.177 0.079 M11.34 2.899 C12.165 1.978, 12.585 1.186, 14.177 0.079 M13.466 3.62 C13.839 2.887, 14.504 2.052, 17.013 0.095 M13.466 3.62 C14.07 2.706, 15.424 1.642, 17.013 0.095 M14.174 5.75 C16.246 2.129, 18.146 2.038, 19.848 0.111 M14.174 5.75 C15.749 3.457, 17.633 2.048, 19.848 0.111 M15.591 7.176 C17.037 3.12, 22.348 2.309, 22.684 0.127 M15.591 7.176 C17.004 6.765, 19.422 3.811, 22.684 0.127 M17.007 8.601 C19.726 7.132, 21.431 3.882, 25.519 0.142 M17.007 8.601 C20.453 7.366, 20.776 4.064, 25.519 0.142 M18.424 10.027 C18.758 9.52, 25.136 5.12, 28.354 0.158 M18.424 10.027 C21.192 6.585, 26.411 2.202, 28.354 0.158 M19.132 12.158 C23.415 9.564, 25.116 3.527, 31.19 0.174 M19.132 12.158 C22.77 7.592, 26.251 3.761, 31.19 0.174 M19.13 14.993 C26.959 7.231, 28.481 5.345, 34.025 0.19 M19.13 14.993 C25.088 11.01, 30.024 3.952, 34.025 0.19 M19.838 17.124 C22.182 16.522, 31.05 9.056, 36.861 0.206 M19.838 17.124 C26.731 13.984, 29.847 5.986, 36.861 0.206 M19.836 19.959 C25.023 13.186, 29.651 8.565, 39.696 0.222 M19.836 19.959 C25.595 12.572, 36.591 4.148, 39.696 0.222 M19.834 22.795 C30.38 12.445, 39.593 6.679, 42.532 0.237 M19.834 22.795 C29.639 14.694, 35.856 7.189, 42.532 0.237 M19.833 25.63 C30.492 20.441, 40.73 5.893, 45.367 0.253 M19.833 25.63 C25.24 19.829, 32.594 14.668, 45.367 0.253 M19.831 28.466 C26.178 24.094, 31.801 12.767, 48.203 0.269 M19.831 28.466 C26.985 21.31, 33.852 12.182, 48.203 0.269 M19.829 31.301 C23.678 22.343, 31.172 16.55, 51.038 0.285 M19.829 31.301 C25.45 24.972, 34.799 13.676, 51.038 0.285 M19.827 34.137 C29.956 18.739, 48.498 6.044, 53.873 0.301 M19.827 34.137 C34.495 21.95, 46.272 10.95, 53.873 0.301 M20.535 36.267 C26.947 30.95, 33.547 20.488, 56.709 0.317 M20.535 36.267 C28.523 29.513, 36.897 20.713, 56.709 0.317 M20.533 39.103 C28.45 27.301, 39.314 16.32, 59.544 0.332 M20.533 39.103 C27.627 30.247, 37.805 21.843, 59.544 0.332 M20.532 41.938 C31.23 34.956, 35.073 21.861, 62.38 0.348 M20.532 41.938 C35.15 27.729, 46.23 17.667, 62.38 0.348 M20.53 44.774 C35.139 26.331, 51.874 12.41, 65.924 -0.341 M20.53 44.774 C33.506 33.843, 43.739 21.403, 65.924 -0.341 M20.528 47.609 C37.063 32.996, 53.913 16.672, 68.76 -0.325 M20.528 47.609 C39.148 29.377, 55.997 11.909, 68.76 -0.325 M20.526 50.445 C36.331 31.926, 58.777 13.244, 71.595 -0.309 M20.526 50.445 C35.996 34.567, 49.353 20.679, 71.595 -0.309 M20.525 53.28 C39.132 30.309, 64.614 13.917, 74.431 -0.293 M20.525 53.28 C40.017 33.791, 57.79 12.727, 74.431 -0.293 M20.523 56.116 C43.365 33.632, 62.82 13.847, 77.266 -0.278 M20.523 56.116 C41.42 34.787, 66.143 13.105, 77.266 -0.278 M21.23 58.246 C40.508 46.399, 55.353 26.248, 80.102 -0.262 M21.23 58.246 C31.647 46.126, 45.108 35.877, 80.102 -0.262 M21.229 61.082 C40.643 40.745, 64.724 16.342, 82.937 -0.246 M21.229 61.082 C34.463 49.147, 49.352 34.349, 82.937 -0.246 M21.227 63.917 C39.174 46.089, 56.804 28.313, 85.773 -0.23 M21.227 63.917 C40.741 44.859, 58.507 26.892, 85.773 -0.23 M21.225 66.753 C44.22 40.251, 67.117 19.177, 88.608 -0.214 M21.225 66.753 C48.632 38.022, 71.818 12.862, 88.608 -0.214 M21.224 69.588 C41.106 45.174, 65.029 26.776, 91.443 -0.198 M21.224 69.588 C36.173 52.807, 54.022 33.089, 91.443 -0.198 M21.931 71.719 C45.182 49.135, 66.237 27.315, 94.279 -0.183 M21.931 71.719 C51.72 43.198, 79.721 17.546, 94.279 -0.183 M22.639 73.849 C40.16 62.925, 52.366 43.646, 97.114 -0.167 M22.639 73.849 C36.517 57.892, 54.858 44.184, 97.114 -0.167 M23.346 75.98 C37.667 63.28, 51.786 41.483, 99.95 -0.151 M23.346 75.98 C41.933 56.302, 59.05 40.183, 99.95 -0.151 M24.054 78.11 C41.613 60.942, 67.231 38.951, 102.785 -0.135 M24.054 78.11 C49.257 58.614, 69.219 35.423, 102.785 -0.135 M24.761 80.241 C45.108 59.179, 65.041 40.181, 105.621 -0.119 M24.761 80.241 C55.017 48.282, 85.303 21.19, 105.621 -0.119 M25.469 82.372 C46.454 58.965, 76.041 33.788, 108.456 -0.103 M25.469 82.372 C53.984 55.807, 81.478 27.423, 108.456 -0.103 M26.176 84.502 C54.641 60.54, 78.11 29.728, 111.292 -0.088 M26.176 84.502 C52.091 55.635, 82.896 27.943, 111.292 -0.088 M27.593 85.928 C61.499 50.257, 97.255 16.535, 114.127 -0.072 M27.593 85.928 C53.7 59.415, 80.38 32.7, 114.127 -0.072 M29.01 87.353 C52.825 68.411, 75.733 45.425, 116.962 -0.056 M29.01 87.353 C57.342 57.885, 88.641 26.32, 116.962 -0.056 M30.427 88.779 C50.826 66.586, 76.614 47.952, 119.798 -0.04 M30.427 88.779 C63.132 55.414, 98.611 23.258, 119.798 -0.04 M31.844 90.205 C62.246 59.494, 92.73 30.212, 122.633 -0.024 M31.844 90.205 C65.073 59.119, 96.452 25.12, 122.633 -0.024 M33.261 91.63 C53.969 67.923, 77.342 45.402, 125.469 -0.008 M33.261 91.63 C59.043 66.406, 84.827 38.458, 125.469 -0.008 M34.678 93.056 C60.9 60.05, 95.113 30.053, 128.304 0.007 M34.678 93.056 C60.634 66.542, 84.023 43.421, 128.304 0.007 M36.095 94.482 C75.364 58.606, 110.877 25.19, 131.14 0.023 M36.095 94.482 C65.236 66.818, 92.315 36.741, 131.14 0.023 M38.221 95.202 C74.301 56.695, 104.628 23.424, 133.975 0.039 M38.221 95.202 C61.354 69.142, 85.884 45.04, 133.975 0.039 M40.347 95.923 C67.346 75.158, 87.544 50.047, 136.811 0.055 M40.347 95.923 C71.513 62.79, 105.533 29.884, 136.811 0.055 M43.182 95.939 C83.11 63.276, 115.464 25.917, 139.646 0.071 M43.182 95.939 C75.999 63.767, 104.98 36.484, 139.646 0.071 M45.308 96.66 C66.653 76.393, 85.859 59.177, 142.481 0.087 M45.308 96.66 C66.385 78.834, 85.476 56.329, 142.481 0.087 M47.435 97.381 C85.196 63.508, 125.523 23.781, 145.317 0.102 M47.435 97.381 C68.007 73.373, 88.894 54.401, 145.317 0.102 M49.561 98.101 C80.042 65.042, 117.939 29.8, 148.152 0.118 M49.561 98.101 C87.565 63.225, 122.423 26.009, 148.152 0.118 M52.396 98.117 C84.279 66.65, 116.033 34.925, 150.988 0.134 M52.396 98.117 C81.555 70.027, 113.456 39.063, 150.988 0.134 M54.522 98.838 C84.444 68.191, 112.41 38.139, 153.823 0.15 M54.522 98.838 C87.964 64.871, 123.48 31.919, 153.823 0.15 M56.648 99.559 C95.7 61.959, 132.116 22.012, 156.659 0.166 M56.648 99.559 C84.256 73.919, 115.07 43.334, 156.659 0.166 M58.775 100.279 C88.232 70.441, 118.981 46.334, 159.494 0.182 M58.775 100.279 C86.48 73.332, 113.677 47.976, 159.494 0.182 M60.901 101 C80.119 84.006, 98.999 60.532, 162.33 0.197 M60.901 101 C84.124 82.71, 102.074 60.517, 162.33 0.197 M63.736 101.016 C100.357 61.526, 131.626 30.256, 165.165 0.213 M63.736 101.016 C94.989 69.774, 127.947 38.737, 165.165 0.213 M66.572 101.032 C91.409 79.714, 110.248 57.003, 168 0.229 M66.572 101.032 C89.827 73.372, 111.098 52.298, 168 0.229 M69.407 101.048 C104.275 68.273, 141.915 27.882, 170.836 0.245 M69.407 101.048 C102.729 68.689, 139.336 31.807, 170.836 0.245 M72.243 101.063 C108.282 64.241, 153.023 17.067, 173.671 0.261 M72.243 101.063 C112.355 63.938, 152.794 21.73, 173.671 0.261 M75.078 101.079 C114.372 61.995, 156.257 21.186, 176.507 0.276 M75.078 101.079 C114.631 60.591, 154.132 23.399, 176.507 0.276 M77.913 101.095 C116.078 68.784, 145.118 38.869, 179.342 0.292 M77.913 101.095 C111.58 67.967, 144.061 34.732, 179.342 0.292 M80.749 101.111 C109.009 63.845, 146.709 33.005, 182.178 0.308 M80.749 101.111 C117.058 61.84, 155.829 26.805, 182.178 0.308 M83.584 101.127 C121.361 64.441, 155.51 28.544, 185.013 0.324 M83.584 101.127 C113.096 71.809, 143.558 45.468, 185.013 0.324 M86.42 101.143 C121.076 70.088, 159.713 33.131, 187.849 0.34 M86.42 101.143 C110.609 73.69, 137.92 46.44, 187.849 0.34 M89.255 101.158 C113.868 72.462, 143.758 43.895, 191.393 -0.349 M89.255 101.158 C118.789 70.042, 145.36 44.667, 191.393 -0.349 M92.091 101.174 C119.955 74.338, 148.87 49.035, 194.229 -0.333 M92.091 101.174 C114.357 82.604, 136.068 57.375, 194.229 -0.333 M94.926 101.19 C118.33 76.277, 141.429 54.285, 197.064 -0.318 M94.926 101.19 C131.064 62.911, 167.301 27.01, 197.064 -0.318 M97.762 101.206 C123.961 74.708, 156.519 49.484, 199.9 -0.302 M97.762 101.206 C116.054 78.554, 138.695 56.882, 199.9 -0.302 M100.597 101.222 C131.883 71.765, 159.816 40.397, 202.735 -0.286 M100.597 101.222 C121.784 76.956, 147.343 56.687, 202.735 -0.286 M103.432 101.238 C135.713 73.199, 169.662 38.599, 205.57 -0.27 M103.432 101.238 C134.14 75.276, 162.544 46.8, 205.57 -0.27 M106.977 100.548 C137.869 71.547, 165.966 43.773, 208.406 -0.254 M106.977 100.548 C141.014 66.595, 178.36 29.479, 208.406 -0.254 M109.813 100.564 C150.033 63.427, 185.294 29.349, 211.241 -0.238 M109.813 100.564 C141.278 74.402, 170.744 43.057, 211.241 -0.238 M112.648 100.58 C139.153 72.356, 167.932 44.388, 214.077 -0.223 M112.648 100.58 C134.475 78.187, 159.976 56.383, 214.077 -0.223 M115.483 100.596 C137.971 78.343, 161.632 57.845, 216.912 -0.207 M115.483 100.596 C155.312 58.971, 196.476 18.825, 216.912 -0.207 M118.319 100.612 C138.907 76.928, 165.61 50.798, 219.748 -0.191 M118.319 100.612 C144.322 77.419, 172.261 50.582, 219.748 -0.191 M121.154 100.628 C159.541 57.644, 200.044 19.94, 222.583 -0.175 M121.154 100.628 C156.358 66.287, 188.231 35.93, 222.583 -0.175 M123.99 100.643 C160.125 63.706, 200.269 23.007, 225.419 -0.159 M123.99 100.643 C154.99 68.585, 187.997 36.169, 225.419 -0.159 M126.825 100.659 C162.362 58.825, 207.05 19.563, 228.254 -0.144 M126.825 100.659 C149.232 80.663, 174.687 54.367, 228.254 -0.144 M129.661 100.675 C166.295 64.038, 196.834 30.605, 231.089 -0.128 M129.661 100.675 C154.559 75.504, 178.733 50.422, 231.089 -0.128 M132.496 100.691 C158.742 77.03, 189.327 48.101, 233.925 -0.112 M132.496 100.691 C157.005 81.14, 177.179 61.33, 233.925 -0.112 M135.332 100.707 C168.823 67.063, 205.049 34.254, 236.76 -0.096 M135.332 100.707 C166.645 68.266, 201.362 33.991, 236.76 -0.096 M138.167 100.723 C170.124 68.994, 205.192 31.935, 239.596 -0.08 M138.167 100.723 C175.619 60.615, 214.175 22.118, 239.596 -0.08 M141.002 100.738 C162.528 72.249, 191.342 49.672, 242.431 -0.064 M141.002 100.738 C177.251 63.583, 214.321 28.554, 242.431 -0.064 M143.838 100.754 C162.647 74.478, 187.291 55.077, 245.267 -0.049 M143.838 100.754 C177.541 64.417, 213.599 30.482, 245.267 -0.049 M146.673 100.77 C168.723 76.055, 203.45 43.917, 248.102 -0.033 M146.673 100.77 C173.234 69.47, 204.036 42.359, 248.102 -0.033 M149.509 100.786 C166.634 75.311, 191.157 53.591, 250.938 -0.017 M149.509 100.786 C178.291 70.497, 206.473 41.197, 250.938 -0.017 M152.344 100.802 C187.173 68.635, 216.836 42.58, 253.773 -0.001 M152.344 100.802 C172.95 78.644, 195.62 61.067, 253.773 -0.001 M155.18 100.818 C182.201 73.312, 207.429 48.559, 256.608 0.015 M155.18 100.818 C180.175 81.675, 201.21 60.638, 256.608 0.015 M158.015 100.833 C176.296 76.348, 203.592 52.545, 259.444 0.031 M158.015 100.833 C194.696 65.682, 233.191 29.579, 259.444 0.031 M160.851 100.849 C202.321 60.605, 235.188 28.462, 262.279 0.046 M160.851 100.849 C179.738 81.414, 200.612 59.788, 262.279 0.046 M163.686 100.865 C197.398 70.736, 227.436 37.843, 265.115 0.062 M163.686 100.865 C192.102 73.953, 221.67 44.548, 265.115 0.062 M166.521 100.881 C198.73 66.241, 230.585 38.275, 267.95 0.078 M166.521 100.881 C191.072 77.979, 217.185 54.49, 267.95 0.078 M169.357 100.897 C208.841 60.405, 247.848 20.788, 270.786 0.094 M169.357 100.897 C202.893 65.17, 237.5 29.769, 270.786 0.094 M172.192 100.913 C189.062 83.334, 208.686 65.95, 273.621 0.11 M172.192 100.913 C203.319 68.936, 238.762 34.203, 273.621 0.11 M175.028 100.928 C208 71.674, 239.788 34.801, 276.457 0.126 M175.028 100.928 C208.366 64.497, 244.702 29.221, 276.457 0.126 M177.863 100.944 C218.731 64.723, 255.442 24.072, 279.292 0.141 M177.863 100.944 C212.329 67.658, 242.008 37.375, 279.292 0.141 M180.699 100.96 C220.582 59.662, 261.211 22.431, 282.127 0.157 M180.699 100.96 C203.21 79.552, 225.517 53.177, 282.127 0.157 M183.534 100.976 C209.876 80.543, 228.315 56.917, 284.963 0.173 M183.534 100.976 C215.471 69.476, 246.22 37.191, 284.963 0.173 M186.37 100.992 C224.133 59.425, 258.478 26.968, 287.798 0.189 M186.37 100.992 C216.496 69.779, 246.943 36.615, 287.798 0.189 M189.205 101.007 C208.773 81.358, 227.699 55.741, 290.634 0.205 M189.205 101.007 C210.951 75.198, 237.526 53.123, 290.634 0.205 M192.04 101.023 C233.247 61.448, 271.383 23.413, 293.469 0.221 M192.04 101.023 C209.943 79.422, 232.327 62.428, 293.469 0.221 M194.876 101.039 C216.849 82.172, 236.575 56.137, 296.305 0.236 M194.876 101.039 C230.797 64.831, 265.276 28.624, 296.305 0.236 M197.711 101.055 C228.955 64.476, 267.268 37.833, 299.14 0.252 M197.711 101.055 C218.793 78.053, 242.392 58.343, 299.14 0.252 M200.547 101.071 C221.879 74.48, 242.904 51.36, 301.976 0.268 M200.547 101.071 C241.882 61.504, 280.66 23.451, 301.976 0.268 M203.382 101.087 C226.25 75.082, 252.304 51.306, 304.811 0.284 M203.382 101.087 C236.799 65.867, 274.505 29.046, 304.811 0.284 M206.927 100.398 C226.696 80.323, 250.269 59.537, 307.646 0.3 M206.927 100.398 C238.049 70.849, 270.169 36.658, 307.646 0.3 M209.762 100.413 C240.807 71.413, 270.697 40.471, 310.482 0.316 M209.762 100.413 C239.219 72.178, 264.709 45.988, 310.482 0.316 M212.598 100.429 C233.888 78.541, 265.572 51.113, 313.317 0.331 M212.598 100.429 C235.195 80.62, 256.482 56.548, 313.317 0.331 M215.433 100.445 C253.298 59.029, 297.915 24.943, 316.153 0.347 M215.433 100.445 C242.472 74.506, 273.029 46.44, 316.153 0.347 M218.269 100.461 C245.357 68.039, 281.973 37.374, 319.698 -0.342 M218.269 100.461 C250.247 68.68, 286.384 31.672, 319.698 -0.342 M221.104 100.477 C261.736 61.253, 306.751 25.911, 322.533 -0.326 M221.104 100.477 C242.405 81.829, 264.331 59.544, 322.533 -0.326 M223.94 100.493 C254.013 67.973, 282.545 37.251, 325.368 -0.31 M223.94 100.493 C245.882 76.74, 267.927 55.387, 325.368 -0.31 M226.775 100.508 C249.101 81.992, 274.274 50.485, 328.204 -0.294 M226.775 100.508 C252.478 76.223, 277.64 50.995, 328.204 -0.294 M229.61 100.524 C263.914 60.805, 298.846 31.863, 331.039 -0.279 M229.61 100.524 C265.08 65.349, 299 32.224, 331.039 -0.279 M232.446 100.54 C261.729 71.436, 293.437 43.214, 333.875 -0.263 M232.446 100.54 C268.709 66.12, 304.601 28.511, 333.875 -0.263 M235.281 100.556 C254.394 78.469, 276.555 59.146, 336.71 -0.247 M235.281 100.556 C270.398 67.5, 305.298 33.482, 336.71 -0.247 M238.117 100.572 C274.143 64.206, 311.464 17.792, 339.546 -0.231 M238.117 100.572 C268.614 69.552, 295.574 37.375, 339.546 -0.231 M240.952 100.587 C276.238 68.189, 311.065 33.994, 342.381 -0.215 M240.952 100.587 C266.118 76.503, 290.876 52.231, 342.381 -0.215 M243.788 100.603 C282.949 67.759, 316.564 25.951, 345.216 -0.199 M243.788 100.603 C267.571 79.097, 289.238 56.066, 345.216 -0.199 M246.623 100.619 C279.634 66.75, 311.267 34.183, 348.052 -0.184 M246.623 100.619 C268.944 75.507, 292.429 51.218, 348.052 -0.184 M249.459 100.635 C281.554 66.132, 315.768 34.865, 350.887 -0.168 M249.459 100.635 C280.346 73.592, 306.113 46.736, 350.887 -0.168 M252.294 100.651 C287.375 60.601, 326.347 31.873, 353.723 -0.152 M252.294 100.651 C283.972 72.765, 314.246 41.76, 353.723 -0.152 M255.129 100.667 C288.757 69.456, 318.849 32.794, 356.558 -0.136 M255.129 100.667 C294.795 62.906, 335.815 22.182, 356.558 -0.136 M257.965 100.682 C293.519 64.567, 329.038 30.092, 359.394 -0.12 M257.965 100.682 C295.922 62.649, 333.124 29.036, 359.394 -0.12 M260.8 100.698 C283.472 77.283, 309.534 56.514, 362.229 -0.104 M260.8 100.698 C286.177 72.001, 317.182 46.308, 362.229 -0.104 M263.636 100.714 C306.364 59.251, 345.201 21.802, 365.065 -0.089 M263.636 100.714 C290.742 74.1, 319.166 46.588, 365.065 -0.089 M266.471 100.73 C303.134 61.582, 347.214 24.758, 367.9 -0.073 M266.471 100.73 C295.116 73.561, 325.403 41.108, 367.9 -0.073 M269.307 100.746 C310.578 64.061, 345.327 27.237, 370.735 -0.057 M269.307 100.746 C300.496 72.434, 325.79 46.597, 370.735 -0.057 M272.142 100.762 C292.454 83.264, 319.193 60.513, 373.571 -0.041 M272.142 100.762 C311.868 62.78, 351.613 24.887, 373.571 -0.041 M274.978 100.777 C315.391 62.8, 355.113 24.385, 376.406 -0.025 M274.978 100.777 C309.977 63.065, 345.346 27.629, 376.406 -0.025 M277.813 100.793 C301.4 74.265, 335.8 41.35, 379.242 -0.009 M277.813 100.793 C305.685 72.99, 329.169 46.536, 379.242 -0.009 M280.648 100.809 C315.044 68.222, 348.757 31.717, 382.077 0.006 M280.648 100.809 C317.936 62.766, 356.784 26.129, 382.077 0.006 M283.484 100.825 C317.49 68.425, 353.009 38.219, 384.913 0.022 M283.484 100.825 C311.796 70.611, 339.943 44.964, 384.913 0.022 M286.319 100.841 C320.051 66.874, 357.976 29.011, 387.748 0.038 M286.319 100.841 C318.862 66.939, 353.842 34.246, 387.748 0.038 M289.155 100.857 C328.252 65.334, 369.868 26.421, 390.584 0.054 M289.155 100.857 C326.384 66.09, 362.856 29.797, 390.584 0.054 M291.99 100.872 C328.082 68.067, 366.707 26.222, 393.419 0.07 M291.99 100.872 C314.766 76.742, 337.915 52.528, 393.419 0.07 M294.826 100.888 C332.776 62.536, 369.371 26.011, 396.254 0.085 M294.826 100.888 C322.566 71.068, 351.719 42.277, 396.254 0.085 M297.661 100.904 C329.67 74.479, 355.235 42.032, 399.09 0.101 M297.661 100.904 C329.173 71.515, 358.486 39.89, 399.09 0.101 M300.497 100.92 C339.624 62.706, 372.547 24.769, 401.925 0.117 M300.497 100.92 C320.143 79.433, 341.282 62.587, 401.925 0.117 M303.332 100.936 C338.406 64.932, 373.304 31.627, 404.761 0.133 M303.332 100.936 C336.797 67.922, 371.729 33.013, 404.761 0.133 M306.877 100.247 C334.888 73.808, 362.115 45.443, 407.596 0.149 M306.877 100.247 C328.141 76.853, 356.165 50.903, 407.596 0.149 M309.712 100.262 C338.628 67.084, 374.113 35.85, 410.432 0.165 M309.712 100.262 C330.884 79.127, 353.251 57.952, 410.432 0.165 M312.548 100.278 C346.785 67.077, 381.082 30.284, 413.267 0.18 M312.548 100.278 C335.995 75.588, 363.317 48.499, 413.267 0.18 M315.383 100.294 C343.374 75.767, 368.973 44.178, 416.103 0.196 M315.383 100.294 C354.137 61.107, 390.724 22.995, 416.103 0.196 M318.219 100.31 C357.373 66.849, 395.167 23.808, 418.938 0.212 M318.219 100.31 C338.124 78.278, 358.832 58.837, 418.938 0.212 M321.054 100.326 C355.667 73.468, 383.348 41.557, 421.773 0.228 M321.054 100.326 C347.568 77.271, 369.891 54.936, 421.773 0.228 M323.889 100.342 C362.156 65.941, 397.596 30.999, 424.609 0.244 M323.889 100.342 C345.457 80.26, 366.118 56.839, 424.609 0.244 M326.725 100.357 C363.936 67.13, 400.792 31.943, 427.444 0.26 M326.725 100.357 C364.239 65.53, 397.997 28.877, 427.444 0.26 M329.56 100.373 C359.176 71.279, 390.759 40.605, 430.28 0.275 M329.56 100.373 C369.953 60.339, 407.947 23.603, 430.28 0.275 M332.396 100.389 C360.346 71.84, 392.684 41.414, 433.115 0.291 M332.396 100.389 C363.863 67.901, 397.102 35.757, 433.115 0.291 M335.231 100.405 C365.485 65.989, 396.379 37.065, 435.951 0.307 M335.231 100.405 C375.122 62.36, 414.312 23.498, 435.951 0.307 M338.067 100.421 C377.306 58.263, 419.393 17.906, 438.786 0.323 M338.067 100.421 C374.486 62.461, 417.234 24.007, 438.786 0.323 M340.902 100.437 C381.869 63.626, 420.186 20.722, 441.622 0.339 M340.902 100.437 C369.734 72.644, 396.573 44.626, 441.622 0.339 M343.737 100.452 C379.241 64.784, 408.99 32.954, 445.166 -0.35 M343.737 100.452 C369.646 72.653, 396.096 47.952, 445.166 -0.35 M346.573 100.468 C372.48 79.975, 396.476 56.548, 448.002 -0.335 M346.573 100.468 C375.312 68.836, 410.455 34.756, 448.002 -0.335 M349.408 100.484 C377.904 72.295, 404.544 44.512, 450.837 -0.319 M349.408 100.484 C381.44 72.084, 412.411 39.51, 450.837 -0.319 M352.244 100.5 C389.907 61.17, 426.628 30.78, 453.673 -0.303 M352.244 100.5 C381.971 72.639, 411.648 41.702, 453.673 -0.303 M355.079 100.516 C380.531 73.635, 403.118 47.661, 456.508 -0.287 M355.079 100.516 C382.217 71.039, 404.514 45.482, 456.508 -0.287 M357.915 100.532 C386.094 80.687, 403.119 54.349, 459.344 -0.271 M357.915 100.532 C394.354 65.587, 430.608 33.697, 459.344 -0.271 M360.75 100.547 C401.743 64.942, 436.023 26.307, 462.179 -0.255 M360.75 100.547 C379.576 80.224, 399.449 57.299, 462.179 -0.255 M363.586 100.563 C402.074 63.191, 436.541 29.963, 465.014 -0.24 M363.586 100.563 C388.865 74.858, 416.379 48.453, 465.014 -0.24 M366.421 100.579 C388.171 77.266, 417.964 51.755, 467.85 -0.224 M366.421 100.579 C406.017 66.981, 442.765 28.834, 467.85 -0.224 M369.256 100.595 C403.545 61.286, 445.359 26.553, 470.685 -0.208 M369.256 100.595 C407.035 60.061, 443.636 24.08, 470.685 -0.208 M372.092 100.611 C401.024 76.296, 433.555 47.262, 473.521 -0.192 M372.092 100.611 C410.494 63.967, 450.792 20.676, 473.521 -0.192 M374.927 100.627 C393.119 85.306, 414.526 58.382, 476.356 -0.176 M374.927 100.627 C403.265 74.101, 426.643 47.322, 476.356 -0.176 M377.763 100.642 C414.483 63.492, 451.803 31.645, 479.192 -0.16 M377.763 100.642 C411.712 69.085, 443.555 35.578, 479.192 -0.16 M380.598 100.658 C412.949 65.236, 448.944 30.852, 482.027 -0.145 M380.598 100.658 C412.865 66.257, 450.087 29.913, 482.027 -0.145 M383.434 100.674 C419.975 73.497, 449.78 41.053, 484.862 -0.129 M383.434 100.674 C403.623 83.423, 425.883 60.505, 484.862 -0.129 M386.269 100.69 C424.946 66.338, 455.818 28.775, 487.698 -0.113 M386.269 100.69 C419.096 65.805, 452.991 33.883, 487.698 -0.113 M389.105 100.706 C421.439 67.904, 456.938 37.681, 490.533 -0.097 M389.105 100.706 C422.437 68.191, 453.064 37.658, 490.533 -0.097 M391.94 100.722 C419.926 73.918, 440.721 44.167, 493.369 -0.081 M391.94 100.722 C430.527 65.235, 467.028 26.402, 493.369 -0.081 M394.775 100.737 C430.795 66.753, 465.954 31.414, 496.204 -0.065 M394.775 100.737 C425.777 69.484, 453.914 41.433, 496.204 -0.065 M397.611 100.753 C427.775 66.466, 454.864 42.194, 499.04 -0.05 M397.611 100.753 C433.598 62.024, 467.703 27.335, 499.04 -0.05 M400.446 100.769 C428.535 74.239, 462.496 43.904, 501.875 -0.034 M400.446 100.769 C427.548 73.267, 453.293 47.285, 501.875 -0.034 M403.282 100.785 C439.743 70.634, 474.045 34.904, 504.711 -0.018 M403.282 100.785 C437.251 71.542, 466.259 40.16, 504.711 -0.018 M406.117 100.801 C447.949 65.79, 484.569 26.076, 507.546 -0.002 M406.117 100.801 C441.43 67.864, 475.54 33.529, 507.546 -0.002 M409.662 100.112 C449.23 61.225, 490.293 20.797, 510.381 0.014 M409.662 100.112 C429.967 80.815, 451.952 59.125, 510.381 0.014 M412.497 100.127 C437.13 71.803, 459.581 50.023, 513.217 0.03 M412.497 100.127 C438.678 75.754, 462.92 51.21, 513.217 0.03 M415.333 100.143 C445.323 75.139, 468.937 50.407, 516.052 0.045 M415.333 100.143 C450.226 65.651, 485.49 33.68, 516.052 0.045 M418.168 100.159 C446.571 74.147, 473.199 43.548, 518.888 0.061 M418.168 100.159 C443.715 70.548, 469.316 44.108, 518.888 0.061 M421.004 100.175 C450.97 72.543, 484.341 40.284, 521.723 0.077 M421.004 100.175 C456.967 64.166, 488.378 34.651, 521.723 0.077 M423.839 100.191 C440.696 80.711, 466.822 56.291, 524.559 0.093 M423.839 100.191 C453.019 69.525, 484.083 42.11, 524.559 0.093 M426.675 100.207 C450.937 78.734, 471.237 54.66, 527.394 0.109 M426.675 100.207 C447.46 77.469, 470.661 56.109, 527.394 0.109 M429.51 100.222 C450.936 78.378, 475.302 50.275, 530.23 0.125 M429.51 100.222 C459.836 69.084, 492.086 38.085, 530.23 0.125 M432.346 100.238 C461.044 71.989, 494.03 39.665, 521.716 11.419 M432.346 100.238 C462.369 67.037, 493.618 37.704, 521.716 11.419 M528.809 4.37 C530.343 1.93, 532.021 0.522, 533.065 0.14 M528.809 4.37 C529.445 2.654, 530.73 2.22, 533.065 0.14 M435.181 100.254 C461.899 72.087, 486.922 48.47, 521.715 14.254 M435.181 100.254 C457.293 77.416, 480.043 56.609, 521.715 14.254 M533.063 2.976 C533.563 2.296, 533.744 2.414, 535.9 0.156 M533.063 2.976 C533.451 2.446, 534.043 1.507, 535.9 0.156 M438.016 100.27 C467.164 74.078, 492.532 52.611, 521.713 17.09 M438.016 100.27 C464.719 77.151, 487.692 49.421, 521.713 17.09 M536.608 2.287 C537.276 1.61, 537.354 1.156, 538.736 0.172 M536.608 2.287 C537.162 1.826, 537.766 1.335, 538.736 0.172 M440.852 100.286 C457.132 84.259, 478.749 70.118, 521.002 20.63 M440.852 100.286 C464.536 77.122, 492.466 54.254, 521.002 20.63 M443.687 100.302 C468.504 75.069, 494.584 53.021, 521 23.466 M443.687 100.302 C463.353 84.244, 480.974 63.025, 521 23.466 M446.523 100.317 C461.948 83.417, 482.742 65.304, 520.998 26.301 M446.523 100.317 C469.486 73.898, 492.817 53.947, 520.998 26.301 M449.358 100.333 C469.357 82.276, 491.169 59.445, 520.997 29.137 M449.358 100.333 C467.097 84.562, 483.183 69.906, 520.997 29.137 M452.194 100.349 C477.959 81.115, 491.447 60.429, 520.995 31.972 M452.194 100.349 C468.571 84.173, 486.289 62.618, 520.995 31.972 M455.029 100.365 C473.117 83.587, 482.031 73.468, 520.993 34.808 M455.029 100.365 C467.346 87.687, 482.874 73.294, 520.993 34.808 M457.865 100.381 C477.654 77.262, 497.435 59.51, 520.992 37.643 M457.865 100.381 C481.455 78.359, 505.364 54.172, 520.992 37.643 M460.7 100.396 C481.37 80.622, 497.976 62.353, 520.281 41.184 M460.7 100.396 C475.672 83.164, 494.163 69.075, 520.281 41.184 M463.535 100.412 C476.973 82.357, 492.547 74.325, 520.279 44.019 M463.535 100.412 C482.063 83.883, 498.729 64.123, 520.279 44.019 M466.371 100.428 C490.718 83.831, 504.698 59.044, 520.277 46.855 M466.371 100.428 C479.921 87.863, 491.988 73.467, 520.277 46.855 M469.206 100.444 C486.412 77.077, 509.618 65.319, 520.275 49.69 M469.206 100.444 C481.872 87.193, 491.158 77.441, 520.275 49.69 M472.042 100.46 C479.423 86.655, 496.135 76.859, 520.274 52.526 M472.042 100.46 C480.825 90.941, 491.563 83.314, 520.274 52.526 M474.877 100.476 C485.685 85.049, 504.411 69.138, 520.272 55.361 M474.877 100.476 C486.388 87.702, 498.985 77.046, 520.272 55.361 M477.713 100.491 C488.86 89.021, 496.074 80.601, 520.27 58.197 M477.713 100.491 C489.819 90.732, 502.178 75.789, 520.27 58.197 M480.548 100.507 C495.177 87.702, 505.501 72.74, 520.268 61.032 M480.548 100.507 C493.242 85.661, 508.998 74.455, 520.268 61.032 M483.383 100.523 C490.42 92.36, 502.917 81.824, 519.557 64.572 M483.383 100.523 C492.488 92.513, 500.325 84.776, 519.557 64.572 M486.219 100.539 C495.935 88.909, 506.173 81.063, 519.556 67.408 M486.219 100.539 C493.519 89.66, 504.368 81.359, 519.556 67.408 M489.764 99.85 C494.904 89.654, 505.909 88.674, 519.554 70.243 M489.764 99.85 C501.235 88.975, 511.318 80.721, 519.554 70.243 M494.018 98.456 C499.924 91.634, 512.842 79.375, 518.134 74.489 M494.018 98.456 C504.696 90.3, 511.163 79.172, 518.134 74.489 M498.272 97.062 C504.551 95.389, 510.255 89.647, 517.423 78.029 M498.272 97.062 C501.969 93.25, 506.238 89.939, 517.423 78.029 M502.526 95.668 C504.182 95.273, 507.748 91.288, 516.002 82.274 M502.526 95.668 C507.854 91.157, 511.398 87.903, 516.002 82.274" stroke="rgb(0, 0, 0)" stroke-width="1.78" fill="none"/><path d="M0 0 M0 0 C16.847 -0.009, 17.313 4.35, 20 20 M0 0 C17.779 -0.767, 19.164 9.003, 20 20 M20 20 C17.871 31.95, 23.844 49.499, 20 60 M20 20 C20.711 29.877, 20.215 38.524, 20 60 M20 60 C23.851 88.181, 32.384 102.346, 60 100 M20 60 C24.049 82.976, 35.735 99.008, 60 100 M60 100 C187.612 98.567, 319.158 99.874, 480 100 M60 100 C158.55 98.152, 255.488 98.673, 480 100 M480 100 C510.021 96.58, 520.859 87.222, 520 60 M480 100 C508.566 97.234, 520.525 90.717, 520 60 M520 60 C521.442 53.512, 518.25 41.471, 520 20 M520 60 C519.112 46.109, 520.085 34.523, 520 20 M520 20 C517.363 9.474, 525.468 -3.249, 540 0 M520 20 C522.521 2.643, 524.663 -2.77, 540 0 M540 0 C408.344 4.181, 274.391 5.699, 0 0 M540 0 C419.752 0.202, 300.392 1.247, 0 0" stroke="rgb(0, 0, 0)" stroke-width="1" fill="none"/></g></svg>