<?xml version="1.0" standalone="yes"?>
<svg xmlns="http://www.w3.org/2000/svg" width="2048" height="2048">
<path style="fill:none; stroke:none;" d="M0 0L0 447L1 447C1 405.598 11.9901 363.03 25 324C71.8114 183.566 186.938 70.6874 327 24C364.934 11.3555 406.794 1 447 1C436.734 -3.30762 419.158 0 408 0L317 0L0 0z"/>
<path style="fill:#f5d56f; stroke:none;" d="M16 354L17 354C23.7351 321.456 38.3858 289.515 53.2477 260C57.4349 251.684 63.9176 233.75 72.1852 229.028C78.2856 225.544 91.0921 228 98 228L164 228L406 228L1590 228L1870 228L1946 228C1953.82 228 1968.94 225.099 1975.81 229.028C1983.15 233.218 1988.15 247.799 1992.14 255C2006.55 280.995 2020.28 310.942 2027 340C2029.37 331.979 2020.93 316.716 2018.05 309C2006.89 279.078 1992.54 249.958 1975.41 223C1903.81 110.327 1783.25 25.9023 1650 6.27161C1604.27 -0.4646 1559.14 0 1513 0L1358 0L851 0L571 0C492.756 0 416.968 -2.26245 341 19.4214C218.484 54.3912 109.747 144.011 52.7531 258C38.0923 287.322 20.4337 321.101 16 354z"/>
<path style="fill:#ffffff; stroke:none;" d="M448 0L449 1L448 0M450 0L451 1L450 0M1597 0L1598 1L1597 0M1599 0L1600 1L1599 0z"/>
<path style="fill:none; stroke:none;" d="M1601 0L1601 1C1639.88 1 1680.17 10.8433 1717 22.6559C1858.82 68.1431 1975.82 182.467 2023 324C2036 363.008 2047 405.62 2047 447L2048 447L2048 0L1601 0z"/>
<path style="fill:#ffffff; stroke:none;" d="M434 1L434 2L437 2L434 1M1611 1L1611 2L1614 2L1611 1M424.667 2.33337L425.333 2.66663L424.667 2.33337M1622.67 2.33337L1623.33 2.66663L1622.67 2.33337M416 3L417 4L416 3M1631 3L1632 4L1631 3M1638.67 4.33337L1639.33 4.66663L1638.67 4.33337M402.667 5.33337L403.333 5.66663L402.667 5.33337M1644.67 5.33337L1645.33 5.66663L1644.67 5.33337M1651 6L1652 7L1651 6M390.667 7.33337L391.333 7.66663L390.667 7.33337M1657 7L1658 8L1657 7M385 8L386 9L385 8M1662 8L1663 9L1662 8M380 9L381 10L380 9M1672 10L1673 11L1672 10M371 11L372 12L371 11M1676 11L1677 12L1676 11M366 12L367 13L366 12M1681 12L1682 13L1681 12M362 13L363 14L362 13M1689 14L1690 15L1689 14M351 16L352 17L351 16M1696 16L1697 17L1696 16M347 17L348 18L347 17M1700 17L1701 18L1700 17M344 18L345 19L344 18M340 19L341 20L340 19M337 20L338 21L337 20M331 22L332 23L331 22M1716 22L1717 23L1716 22M328 23L329 24L328 23M1723 24L1724 25L1723 24M1725 25L1726 26L1725 25M319 26L320 27L319 26M1728 26L1729 27L1728 26M1731 27L1732 28L1731 27M313 28L314 29L313 28M1734 28L1735 29L1734 28M1737 29L1738 30L1737 29M308 30L309 31L308 30M305 31L306 32L305 31M1742 31L1743 32L1742 31M300 33L301 34L300 33M1747 33L1748 34L1747 33M298 34L299 35L298 34M1749 34L1750 35L1749 34M295 35L296 36L295 35M1752 35L1753 36L1752 35M293 36L294 37L293 36M1754 36L1755 37L1754 36M290 37L291 38L290 37M1757 37L1758 38L1757 37M288 38L289 39L288 38M1759 38L1760 39L1759 38M286 39L287 40L286 39M281 41L282 42L281 41M1766 41L1767 42L1766 41M279 42L280 43L279 42M1768 42L1769 43L1768 42M1770 43L1771 44L1770 43M275 44L276 45L275 44M1772 44L1773 45L1772 44M268 47L269 48L268 47M1781 48L1782 49L1781 48M1783 49L1784 50L1783 49M262 50L263 51L262 50M1785 50L1786 51L1785 50M260 51L261 52L260 51M1787 51L1788 52L1787 51M253 55L254 56L253 55M1796 56L1797 57L1796 56M249 57L250 58L249 57M1800 58L1801 59L1800 58M1802 59L1803 60L1802 59M1805 61L1806 62L1805 61M1807 62L1808 63L1807 62M238 63L239 64L238 63M1809 63L1810 64L1809 63M235 65L236 66L235 65M1814 66L1815 67L1814 66M230 68L231 69L230 68M1822 71L1823 72L1822 71M1827 74L1828 75L1827 74M217 76L218 77L217 76M214 78L215 79L214 78M1836 80L1837 81L1836 80M208 82L209 83L208 82M1839 82L1840 83L1839 82M202 86L203 87L202 86M1845 86L1846 87L1845 86M1846 87L1847 88L1846 87M198 89L199 90L198 89M194 92L195 93L194 92M191 94L192 95L191 94M1856 94L1857 95L1856 94M190 95L191 96L190 95M186 98L187 99L186 98M182 101L183 102L182 101M1865 101L1866 102L1865 101M177 105L178 106L177 105M1870 105L1871 106L1870 105M1875 109L1876 110L1875 109M1876 110L1877 111L1876 110M165 115L166 116L165 115M1882 115L1883 116L1882 115M139 139L140 140L139 139M1908 139L1909 140L1908 139M115 165L116 166L115 165M114 166L115 167L114 166M109 172L110 173L109 172M101 182L102 183L101 182M1946 182L1947 183L1946 182M94 191L95 192L94 191M1953 191L1954 192L1953 191M89 198L90 199L89 198M1958 198L1959 199L1958 198M86 202L87 203L86 202M1961 202L1962 203L1961 202M1971 217L1972 218L1971 217z"/>
<path style="fill:#f5cc47; stroke:none;" d="M0 512L2048 512C2048 435.613 2040.32 361.934 2009.72 291C2002.78 274.926 1995.2 259.24 1986.58 244C1984.01 239.468 1980.9 230.745 1975.81 228.603C1965.48 224.249 1946.23 228 1935 228L1839 228L1505 228L486 228L192 228L108 228C98.0786 228 81.3351 224.75 72.1852 228.603C67.1014 230.744 63.9904 239.468 61.4244 244C52.7954 259.239 45.2159 274.926 38.2809 291C7.67031 361.947 0 435.599 0 512z"/>
<path style="fill:#ffffff; stroke:none;" d="M63 238L64 239L63 238M1984 238L1985 239L1984 238M51 260L52 261L51 260M1996 260L1997 261L1996 260M50 262L51 263L50 262M1997 262L1998 263L1997 262M49 264L50 265L49 264M1998 264L1999 265L1998 264M1999 266L2000 267L1999 266M37 290L38 291L37 290M2010 290L2011 291L2010 290M2028 340L2029 341L2028 340z"/>
<path style="fill:#f5d56f; stroke:none;" d="M2028 341L2028 344L2029 344L2028 341M2029 344L2029 347L2030 347L2029 344M2030 347L2030 351L2031 351L2030 347M2031 351L2031 354L2032 354L2031 351z"/>
<path style="fill:#ffffff; stroke:none;" d="M15 354L16 355L15 354z"/>
<path style="fill:#f5d56f; stroke:none;" d="M15 355L15 358L16 358L15 355M2032 355L2032 358L2033 358L2032 355M14 358L14 362L15 362L14 358M2033 358L2033 362L2034 362L2033 358M13 362L13 366L14 366L13 362z"/>
<path style="fill:#ffffff; stroke:none;" d="M2034 362L2035 363L2034 362z"/>
<path style="fill:#f5d56f; stroke:none;" d="M2034 363L2034 366L2035 366L2034 363z"/>
<path style="fill:#ffffff; stroke:none;" d="M12 366L13 367L12 366M2035 366L2036 367L2035 366z"/>
<path style="fill:#f5d56f; stroke:none;" d="M12 367L12 370L13 370L12 367M2035 367L2035 370L2036 370L2035 367M11 371L11 375L12 375L11 371M2036 371L2036 375L2037 375L2036 371M10 375L10 380L11 380L10 375M2037 375L2037 380L2038 380L2037 375M9 380L9 384L10 384L9 380M2038 380L2038 384L2039 384L2038 380M8 385L8 390L9 390L8 385M2039 385L2039 390L2040 390L2039 385M7 390L7 395L8 395L7 390M2040 390L2040 395L2041 395L2040 390M6 396L6 401L7 401L6 396M2041 396L2041 401L2042 401L2041 396M5 402L5 407L6 407L5 402M2042 402L2042 408L2043 408L2042 402z"/>
<path style="fill:#ffffff; stroke:none;" d="M4 408L5 409L4 408M2043 408L2044 409L2043 408z"/>
<path style="fill:#f5d56f; stroke:none;" d="M4 409L4 415L5 415L4 409M2043 409L2043 415L2044 415L2043 409z"/>
<path style="fill:#ffffff; stroke:none;" d="M3 415L4 416L3 415z"/>
<path style="fill:#f5d56f; stroke:none;" d="M3 416L3 423L4 423L3 416M2044 416L2044 423L2045 423L2044 416M2 424L2 432L3 432L2 424M2045 424L2045 432L2046 432L2045 424M1 434L1 444L2 444L1 434M2046 434L2046 444L2047 444L2046 434M0 447L0 464L1 464L0 447M2047 447L2047 464L2048 464L2047 447z"/>
<path style="fill:#ffffff; stroke:none;" d="M0 512L0 618L1 618C6.22459 588.709 50.9726 593.725 50.9707 623C50.9688 652.217 6.27059 657.206 1 628L0 628L0 1007L2048 1007L2048 512L0 512z"/>
<path style="fill:#c6c4c8; stroke:none;" d="M18 598.532C-14.1758 606.198 1.08427 655.071 33 647.468C65.2814 639.777 50.1305 590.878 18 598.532M103 598.638C70.9806 607.841 87.2041 656.388 119 647.211C150.609 638.087 134.686 589.531 103 598.638M189 598.529C157.09 605.903 171.313 654.462 203 647.61C235.691 640.541 221.591 590.998 189 598.529M274 598.532C241.824 606.198 257.084 655.071 289 647.468C321.281 639.777 306.13 590.878 274 598.532M359 598.638C326.981 607.841 343.204 656.388 375 647.211C406.609 638.087 390.686 589.531 359 598.638M445 598.529C413.09 605.903 427.313 654.462 459 647.61C491.691 640.541 477.591 590.998 445 598.529M530 598.532C497.824 606.198 513.084 655.071 545 647.468C577.281 639.777 562.13 590.878 530 598.532M615 598.638C582.98 607.841 599.204 656.388 631 647.211C662.609 638.087 646.686 589.531 615 598.638M701 598.529C669.09 605.903 683.313 654.462 715 647.61C747.691 640.541 733.591 590.998 701 598.529M786 598.532C753.824 606.198 769.084 655.071 801 647.468C833.281 639.777 818.13 590.878 786 598.532M871 598.638C838.98 607.841 855.204 656.388 887 647.211C918.609 638.087 902.686 589.531 871 598.638M957 598.529C925.09 605.903 939.313 654.462 971 647.61C1003.69 640.541 989.591 590.998 957 598.529M1042 598.532C1009.82 606.198 1025.08 655.071 1057 647.468C1089.28 639.777 1074.13 590.878 1042 598.532M1127 598.638C1094.98 607.841 1111.2 656.388 1143 647.211C1174.61 638.087 1158.69 589.531 1127 598.638M1213 598.529C1181.09 605.903 1195.31 654.462 1227 647.61C1259.69 640.541 1245.59 590.998 1213 598.529M1298 598.532C1265.82 606.198 1281.08 655.071 1313 647.468C1345.28 639.777 1330.13 590.878 1298 598.532M1383 598.638C1350.98 607.841 1367.2 656.388 1399 647.211C1430.61 638.087 1414.69 589.531 1383 598.638M1469 598.529C1437.09 605.903 1451.31 654.462 1483 647.61C1515.69 640.541 1501.59 590.998 1469 598.529M1554 598.532C1521.82 606.198 1537.08 655.071 1569 647.468C1601.28 639.777 1586.13 590.878 1554 598.532M1639 598.638C1606.98 607.841 1623.2 656.388 1655 647.211C1686.61 638.087 1670.69 589.531 1639 598.638M1725 598.529C1693.09 605.903 1707.31 654.462 1739 647.61C1771.69 640.541 1757.59 590.998 1725 598.529M1810 598.532C1777.82 606.198 1793.08 655.071 1825 647.468C1857.28 639.777 1842.13 590.878 1810 598.532M1895 598.638C1862.98 607.841 1879.2 656.388 1911 647.211C1942.61 638.087 1926.69 589.531 1895 598.638M1981 598.529C1949.09 605.903 1963.31 654.462 1995 647.61C2027.69 640.541 2013.59 590.998 1981 598.529M0 1007L0 1041L2048 1041L2048 1007L0 1007z"/>
<path style="fill:#ffffff; stroke:none;" d="M0 1041L0 1519L2048 1519L2048 1041L0 1041z"/>
<path style="fill:#c6c4c8; stroke:none;" d="M0 1519L0 1553L2048 1553L2048 1519L0 1519z"/>
<path style="fill:#ffffff; stroke:none;" d="M0 1553C0 1606.31 4.25289 1657.65 19.7199 1709C67.4423 1867.45 197.442 1991.06 357 2033.27C411.577 2047.7 466.014 2048 522 2048L675 2048L1230 2048L1480 2048C1523.65 2048 1568.56 2050.97 1612 2046.83C1673.07 2041.01 1732.08 2024.49 1787 1997.03C1909.95 1935.56 2001.38 1818.97 2034.62 1686C2045.62 1642.01 2048 1598.1 2048 1553L0 1553z"/>
<path style="fill:none; stroke:none;" d="M0 1601L0 2048L447 2048L447 2047C407.197 2047 365.568 2036.86 328 2024.33C202.12 1982.37 97.696 1888.63 42.3086 1768C26.249 1733.02 14.695 1695.81 7.61111 1658C5.31748 1645.76 3.40763 1633.39 2.16898 1621C1.55224 1614.83 2.37366 1606.66 0 1601M2047 1601C2047 1641.22 2036.65 1683.05 2024 1721C1977.33 1861.02 1864.4 1976.2 1724 2023C1685.01 2036 1642.36 2047 1601 2047L1601 2048L2048 2048L2048 1731L2048 1640C2048 1628.84 2051.31 1611.27 2047 1601z"/>
</svg>
