<?xml version="1.0" standalone="yes"?>
<svg xmlns="http://www.w3.org/2000/svg" width="151" height="151">
<path style="fill:none; stroke:none;" d="M0 0L0 27L1 27C2.38724 13.4565 14.62 1.91827 28 1L0 0z"/>
<path style="fill:#0270bc; stroke:none;" d="M28 0L29 1L28 0z"/>
<path style="fill:#fdfdfd; stroke:none;" d="M29 0.428238C-12.1581 6.33783 0 67.4204 0 97C0 110.239 -1.73302 125.702 6.61265 136.999C12.4535 144.906 21.3053 149.231 31 149.91C48.4931 151.137 66.4616 150 84 150C96.3513 150 109.79 151.484 122 149.561C162.433 143.194 150 82.2718 150 53C150 40.2914 152.198 24.9927 144.362 14C138.174 5.31999 129.376 1.17381 119 0.169754C102.952 -1.38327 86.1252 0 70 0C56.6202 0 42.2506 -1.47432 29 0.428238z"/>
<path style="fill:#b0b6ba; stroke:none;" d="M121 0L122 1L121 0z"/>
<path style="fill:none; stroke:none;" d="M122 0L122 1C138.416 1.38596 149.873 17.6471 150 33L151 33L151 0L122 0z"/>
<path style="fill:#0270bc; stroke:none;" d="M21 1L22 2L21 1M127.667 1.33333L128.333 1.66667L127.667 1.33333M19 2L20 3L19 2z"/>
<path style="fill:#b0b6ba; stroke:none;" d="M130 2L131 3L130 2z"/>
<path style="fill:#0270bc; stroke:none;" d="M17 3L18 4L17 3z"/>
<path style="fill:#b0b6ba; stroke:none;" d="M132 3L133 4L132 3z"/>
<path style="fill:#0270bc; stroke:none;" d="M15 4L16 5L15 4z"/>
<path style="fill:#b0b6ba; stroke:none;" d="M16 4L17 5L16 4M14 5L15 6L14 5M13 6L14 7L13 6M137 6L138 7L137 6z"/>
<path style="fill:#fdfdfd; stroke:none;" d="M9 7L10 8L9 7z"/>
<path style="fill:#0270bc; stroke:none;" d="M11 7L12 8L11 7z"/>
<path style="fill:#b0b6ba; stroke:none;" d="M138 7L139 8L138 7M139 8L140 9L139 8M9 9L10 10L9 9M140 9L141 10L140 9M141 10L142 11L141 10z"/>
<path style="fill:#239dee; stroke:none;" d="M7 11L8 12L7 11z"/>
<path style="fill:#b0b6ba; stroke:none;" d="M142 11L143 12L142 11z"/>
<path style="fill:#0270bc; stroke:none;" d="M144 12L145 13L144 12z"/>
<path style="fill:#b0b6ba; stroke:none;" d="M6 13L7 14L6 13M5 14L6 15L5 14M145 15L146 16L145 15M4 16L5 17L4 16z"/>
<path style="fill:#fdfdfd; stroke:none;" d="M148 16L149 17L148 16z"/>
<path style="fill:#b0b6ba; stroke:none;" d="M146 17L147 18L146 17z"/>
<path style="fill:#fdfdfd; stroke:none;" d="M149 18L150 19L149 18z"/>
<path style="fill:#b0b6ba; stroke:none;" d="M147 19L148 20L147 19M2 20L3 21L2 20M148.333 21.6667L148.667 22.3333L148.333 21.6667z"/>
<path style="fill:#0270bc; stroke:none;" d="M1 22L2 23L1 22z"/>
<path style="fill:#b0b6ba; stroke:none;" d="M1 23L2 24L1 23M95 23L96 24L95 23z"/>
<path style="fill:#239dee; stroke:none;" d="M96 23L96 24C102.082 29.0662 100 38.7415 100 46L100 103C100 109.895 102.236 120.873 97 126C102.992 128.314 123.023 119.002 125.397 112.956C127.368 107.934 126 100.333 126 95L126 56C126 50.6392 127.641 41.9182 124.972 37.1049C121.113 30.1452 103.543 23.7727 96 23z"/>
<path style="fill:#b0b6ba; stroke:none;" d="M100 23L101 24L100 23z"/>
<path style="fill:#239dee; stroke:none;" d="M94 24L95 25L94 24z"/>
<path style="fill:#0270bc; stroke:none;" d="M69 76C75.7797 69.5159 83.604 64.1803 91 58.4244C93.9964 56.0924 98.5858 53.7308 99.6821 49.8264C100.895 45.5065 102.221 23.1765 94.9807 24.8904C91.024 25.827 87.8751 30.2336 85 32.8302C76.4479 40.5542 63.9433 57.2611 53 60.8843C42.4794 64.3674 34.5741 39.2128 23.608 54.429C17.7792 62.517 34.087 67.8267 35.7932 74.0394C37.5593 80.4701 24.5213 85.5261 22.6227 91.0355C20.9399 95.9187 27.2677 101.889 32 101.549C39.8379 100.985 46.849 86.1093 55 90.8573C65.778 97.1354 76.0454 109.295 85 117.986C87.5627 120.473 93.4795 127.633 97.6821 125.674C101.635 123.831 100 114.486 100 111C100 93.9184 82.4755 84.9049 69 76z"/>
<path style="fill:#b0b6ba; stroke:none;" d="M102 24L103 25L102 24M92 25L93 26L92 25M104 25L105 26L104 25M149 25L149 28L150 28L149 25M91 26L92 27L91 26M106 26L107 27L106 26z"/>
<path style="fill:#239dee; stroke:none;" d="M0 27L1 28L0 27z"/>
<path style="fill:#b0b6ba; stroke:none;" d="M90 27L91 28L90 27M109 27L110 28L109 27M0 28L0 31L1 31L0 28M89 28L90 29L89 28M88 29L89 30L88 29M87 30L88 31L87 30z"/>
<path style="fill:#239dee; stroke:none;" d="M86 31L87 32L86 31z"/>
<path style="fill:#b0b6ba; stroke:none;" d="M117 31L118 32L117 31z"/>
<path style="fill:#239dee; stroke:none;" d="M85 32L86 33L85 32z"/>
<path style="fill:#b0b6ba; stroke:none;" d="M119 32L120 33L119 32z"/>
<path style="fill:#239dee; stroke:none;" d="M84 33L85 34L84 33z"/>
<path style="fill:#b0b6ba; stroke:none;" d="M121 33L122 34L121 33z"/>
<path style="fill:#0270bc; stroke:none;" d="M150.333 33.6667L150.667 34.3333L150.333 33.6667z"/>
<path style="fill:#239dee; stroke:none;" d="M83 34L84 35L83 34z"/>
<path style="fill:#b0b6ba; stroke:none;" d="M123 34L124 35L123 34M124 35L125 36L124 35M150 35L150 116L151 116L151 60L150 35M80 36L81 37L80 36M125 36L126 37L125 36M79 37L80 38L79 37M78 38L79 39L78 38M77 39L78 40L77 39M126 39L126 113L127 113L127 62L126 39z"/>
<path style="fill:#239dee; stroke:none;" d="M76 40L77 41L76 40M75 41L76 42L75 41M74 42L75 43L74 42M73 43L74 44L73 43M72 44L73 45L72 44z"/>
<path style="fill:#b0b6ba; stroke:none;" d="M70 45L71 46L70 45M68 47L69 48L68 47M29 48L30 49L29 48z"/>
<path style="fill:#239dee; stroke:none;" d="M30 48L30 49L33 49L30 48z"/>
<path style="fill:#b0b6ba; stroke:none;" d="M33 48L34 49L33 48M67 48L68 49L67 48z"/>
<path style="fill:#239dee; stroke:none;" d="M28 49L29 50L28 49M34 49L35 50L34 49z"/>
<path style="fill:#b0b6ba; stroke:none;" d="M66 49L67 50L66 49z"/>
<path style="fill:#239dee; stroke:none;" d="M27 50L28 51L27 50M35 50L36 51L35 50z"/>
<path style="fill:#b0b6ba; stroke:none;" d="M65 50L66 51L65 50z"/>
<path style="fill:#239dee; stroke:none;" d="M26 51L27 52L26 51M36 51L37 52L36 51z"/>
<path style="fill:#b0b6ba; stroke:none;" d="M37 51L38 52L37 51M64 51L65 52L64 51z"/>
<path style="fill:#239dee; stroke:none;" d="M25 52L26 53L25 52z"/>
<path style="fill:#b0b6ba; stroke:none;" d="M38 52L39 53L38 52z"/>
<path style="fill:#239dee; stroke:none;" d="M63 52L64 53L63 52M98 52L99 53L98 52z"/>
<path style="fill:#b0b6ba; stroke:none;" d="M99 52L69 75L69 76L72 78C74.0426 70.8982 86.2847 64.8619 92 60.4252C94.7708 58.2742 99.9002 55.9327 99 52M23 53L24 54L23 53z"/>
<path style="fill:#239dee; stroke:none;" d="M24 53L25 54L24 53M39 53L40 54L39 53M62 53L63 54L62 53z"/>
<path style="fill:#b0b6ba; stroke:none;" d="M22 54L23 55L22 54z"/>
<path style="fill:#239dee; stroke:none;" d="M40 54L41 55L40 54z"/>
<path style="fill:#b0b6ba; stroke:none;" d="M41 54L42 55L41 54z"/>
<path style="fill:#239dee; stroke:none;" d="M61 54L62 55L61 54z"/>
<path style="fill:#b0b6ba; stroke:none;" d="M42 55L43 56L42 55z"/>
<path style="fill:#239dee; stroke:none;" d="M94 55L95 56L94 55z"/>
<path style="fill:#fdfdfd; stroke:none;" d="M71 76L71 77L100 98L100 55L71 76z"/>
<path style="fill:#b0b6ba; stroke:none;" d="M21 56L22 57L21 56z"/>
<path style="fill:#239dee; stroke:none;" d="M43 56L44 57L43 56M21.3333 57.6667L21.6667 58.3333L21.3333 57.6667M44 57L45 58L44 57z"/>
<path style="fill:#b0b6ba; stroke:none;" d="M45 57L46 58L45 57M57 57L58 58L57 57M46 58L47 59L46 58M56 58L57 59L56 58z"/>
<path style="fill:#239dee; stroke:none;" d="M90 58L91 59L90 58z"/>
<path style="fill:#b0b6ba; stroke:none;" d="M21 59L22 60L21 59z"/>
<path style="fill:#239dee; stroke:none;" d="M47 59L48 60L47 59z"/>
<path style="fill:#b0b6ba; stroke:none;" d="M55 59L56 60L55 59z"/>
<path style="fill:#239dee; stroke:none;" d="M89 59L90 60L89 59M22 60L28 66L22 60M48 60L49 61L48 60z"/>
<path style="fill:#b0b6ba; stroke:none;" d="M54 60L55 61L54 60M22 61L37 77C35.8298 70.1469 27.5014 64.7617 22 61M50 61L51 62L50 61M53 61L54 62L53 61z"/>
<path style="fill:#239dee; stroke:none;" d="M51.6667 62.3333L52.3333 62.6667L51.6667 62.3333M81 65L82 66L81 65M77 68L78 69L77 68M33 70L34 71L33 70M34 71L35 72L34 71M73 71L74 72L73 71M35 72L36 73L35 72M36 73L37 74L36 73M37 74L38 75L37 74z"/>
<path style="fill:#b0b6ba; stroke:none;" d="M35 77L36 78L35 77M34 78L35 79L34 78z"/>
<path style="fill:#239dee; stroke:none;" d="M72 78L73 79L72 78z"/>
<path style="fill:#b0b6ba; stroke:none;" d="M33 79L34 80L33 79z"/>
<path style="fill:#239dee; stroke:none;" d="M73 79L74 80L73 79z"/>
<path style="fill:#b0b6ba; stroke:none;" d="M74 79L75 80L74 79M32 80L33 81L32 80M75 80L76 81L75 80M31 81L32 82L31 81z"/>
<path style="fill:#239dee; stroke:none;" d="M76 81L77 82L76 81z"/>
<path style="fill:#b0b6ba; stroke:none;" d="M30 82L31 83L30 82z"/>
<path style="fill:#239dee; stroke:none;" d="M77 82L78 83L77 82M29 83L30 84L29 83z"/>
<path style="fill:#b0b6ba; stroke:none;" d="M79 83L80 84L79 83z"/>
<path style="fill:#239dee; stroke:none;" d="M28 84L29 85L28 84M80 84L81 85L80 84M27 85L28 86L27 85M81 85L82 86L81 85z"/>
<path style="fill:#b0b6ba; stroke:none;" d="M82 85L83 86L82 85z"/>
<path style="fill:#239dee; stroke:none;" d="M26 86L27 87L26 86z"/>
<path style="fill:#b0b6ba; stroke:none;" d="M83 86L84 87L83 86M84 87L85 88L84 87M23 88L24 89L23 88M22 96C22.8875 97.9016 23.6627 99.4189 25.1489 100.966C36.4255 112.705 43.4406 88.4688 54 93.1211C64.4493 97.725 75.7498 112.039 84 119.989C87.6052 123.463 92.6301 129.448 98 129.747C103.038 130.028 108.611 126.015 113 123.941C117.934 121.61 122.482 120.119 125 115C118.205 118.476 104.74 128.135 97 126.639C92.6179 125.792 89.2123 121.213 86 118.424C77.8326 111.333 70.1694 103.669 62 96.5756C59.4079 94.325 56.4127 90.2654 53 89.331C46.2628 87.4864 39.2097 99.5484 33 101.153C28.8166 102.234 25.1455 98.1397 22 96z"/>
<path style="fill:#239dee; stroke:none;" d="M85 88L86 89L85 88z"/>
<path style="fill:#b0b6ba; stroke:none;" d="M22 89L23 90L22 89M87 89L88 90L87 89z"/>
<path style="fill:#239dee; stroke:none;" d="M48 90L49 91L48 90z"/>
<path style="fill:#b0b6ba; stroke:none;" d="M88 90L89 91L88 90M21 91L22 92L21 91z"/>
<path style="fill:#239dee; stroke:none;" d="M56 91L57 92L56 91M89 91L90 92L89 91M21.3333 92.6667L21.6667 93.3333L21.3333 92.6667M57 92L58 93L57 92M90 92L91 93L90 92z"/>
<path style="fill:#b0b6ba; stroke:none;" d="M91 92L92 93L91 92z"/>
<path style="fill:#239dee; stroke:none;" d="M44 93L45 94L44 93M58 93L59 94L58 93z"/>
<path style="fill:#b0b6ba; stroke:none;" d="M92 93L93 94L92 93M21 94L22 95L21 94z"/>
<path style="fill:#239dee; stroke:none;" d="M59 94L60 95L59 94M93 94L94 95L93 94M60 95L61 96L60 95M94 95L95 96L94 95z"/>
<path style="fill:#b0b6ba; stroke:none;" d="M95 95L96 96L95 95z"/>
<path style="fill:#239dee; stroke:none;" d="M40 96L41 97L40 96M61 96L62 97L61 96z"/>
<path style="fill:#b0b6ba; stroke:none;" d="M96 96L97 97L96 96z"/>
<path style="fill:#239dee; stroke:none;" d="M24 97L25 98L24 97M97 97L98 98L97 97M25 98L26 99L25 98z"/>
<path style="fill:#b0b6ba; stroke:none;" d="M99 98L100 99L99 98z"/>
<path style="fill:#239dee; stroke:none;" d="M26 99L27 100L26 99M36 99L37 100L36 99M27 100L28 101L27 100M35 100L36 101L35 100M67 101L68 102L67 101M68 102L69 103L68 102M69 103L70 104L69 103M70 104L71 105L70 104M71 105L72 106L71 105M72 106L73 107L72 106M78 111L79 112L78 111M79 112L80 113L79 112M80 113L81 114L80 113M81 114L82 115L81 114z"/>
<path style="fill:#b0b6ba; stroke:none;" d="M125 114L126 115L125 114z"/>
<path style="fill:#239dee; stroke:none;" d="M82 115L83 116L82 115M83 116L84 117L83 116z"/>
<path style="fill:#0270bc; stroke:none;" d="M150 116L151 117L150 116z"/>
<path style="fill:#239dee; stroke:none;" d="M84 117L85 118L84 117z"/>
<path style="fill:none; stroke:none;" d="M150 117C149.846 135.602 135.602 149.846 117 150L117 151L151 151L150 117z"/>
<path style="fill:#b0b6ba; stroke:none;" d="M0 119L0 123L1 123L0 119M149 122L149 125L150 125L149 122z"/>
<path style="fill:#0270bc; stroke:none;" d="M0 123L1 124L0 123z"/>
<path style="fill:#239dee; stroke:none;" d="M91 123L92 124L91 123z"/>
<path style="fill:none; stroke:none;" d="M0 124L0 151L34 151L34 150C15.2925 149.948 8.06959 138.824 0 124z"/>
<path style="fill:#239dee; stroke:none;" d="M92 124L93 125L92 124M93 125L94 126L93 125z"/>
<path style="fill:#b0b6ba; stroke:none;" d="M1.33333 126.667L1.66667 127.333L1.33333 126.667z"/>
<path style="fill:#239dee; stroke:none;" d="M94 126L95 127L94 126z"/>
<path style="fill:#b0b6ba; stroke:none;" d="M148 128L149 129L148 128M2 129L3 130L2 129z"/>
<path style="fill:#0270bc; stroke:none;" d="M2 130L3 131L2 130z"/>
<path style="fill:#b0b6ba; stroke:none;" d="M147 130L148 131L147 130z"/>
<path style="fill:#0270bc; stroke:none;" d="M147 131L148 132L147 131M3 132L4 133L3 132z"/>
<path style="fill:#b0b6ba; stroke:none;" d="M146 132L147 133L146 132M4 133L5 134L4 133z"/>
<path style="fill:#0270bc; stroke:none;" d="M4 134L5 135L4 134z"/>
<path style="fill:#b0b6ba; stroke:none;" d="M145 134L146 135L145 134M5 135L6 136L5 135z"/>
<path style="fill:#0270bc; stroke:none;" d="M144 136L145 137L144 136z"/>
<path style="fill:#b0b6ba; stroke:none;" d="M143 137L144 138L143 137z"/>
<path style="fill:#0270bc; stroke:none;" d="M7 138L8 139L7 138z"/>
<path style="fill:#b0b6ba; stroke:none;" d="M142 138L143 139L142 138M8 139L9 140L8 139M141 139L142 140L141 139M9 140L10 141L9 140M140 140L141 141L140 140M10 141L11 142L10 141M11 142L12 143L11 142M138 142L139 143L138 142z"/>
<path style="fill:#0270bc; stroke:none;" d="M12 143L13 144L12 143z"/>
<path style="fill:#b0b6ba; stroke:none;" d="M137 143L138 144L137 143M14 144L15 145L14 144z"/>
<path style="fill:#0270bc; stroke:none;" d="M136 144L137 145L136 144z"/>
<path style="fill:#239dee; stroke:none;" d="M15 145L16 146L15 145z"/>
<path style="fill:#b0b6ba; stroke:none;" d="M134 145L135 146L134 145M17 146L18 147L17 146M132 146L133 147L132 146M140 146L141 147L140 146M19 147L20 148L19 147M130 147L131 148L130 147z"/>
<path style="fill:#0270bc; stroke:none;" d="M131 147L132 148L131 147z"/>
<path style="fill:#b0b6ba; stroke:none;" d="M21.6667 148.333L22.3333 148.667L21.6667 148.333M127.667 148.333L128.333 148.667L127.667 148.333z"/>
<path style="fill:#0270bc; stroke:none;" d="M25 149L26 150L25 149z"/>
<path style="fill:#b0b6ba; stroke:none;" d="M26.6667 149.333L27.3333 149.667L26.6667 149.333M122 149L122 150L125 150L122 149z"/>
<path style="fill:#0270bc; stroke:none;" d="M34 150L35 151L34 150z"/>
<path style="fill:#239dee; stroke:none;" d="M35 150L36 151L35 150z"/>
<path style="fill:#b0b6ba; stroke:none;" d="M36 150L36 151L115 151L90 150L36 150z"/>
<path style="fill:#0270bc; stroke:none;" d="M115.667 150.333L116.333 150.667L115.667 150.333z"/>
</svg>
